<?xml version="1.0" encoding="utf-8" ?>
<svg baseProfile="full" height="300mm" version="1.1" viewBox="0,0,200,300" width="200mm" xmlns="http://www.w3.org/2000/svg" xmlns:ev="http://www.w3.org/2001/xml-events" xmlns:xlink="http://www.w3.org/1999/xlink"><defs /><rect fill="#222222" height="300" width="200" x="0" y="0" /><text fill="#FFFFFF" style="font-size:12px; font-family:Arial; font-weight:bold;" x="10" y="20">Track</text><text fill="#FFFFFF" style="font-size:4px; font-family:Arial" x="10" y="280">ATHLETE</text><text fill="#FFFFFF" style="font-size:9px; font-family:Arial" x="10" y="290">Zzz</text><text fill="#FFFFFF" style="font-size:4px; font-family:Arial" x="120" y="280">STATISTICS</text><text fill="#FFFFFF" style="font-size:3px; font-family:Arial" x="120" y="285">Number: 3</text><text fill="#FFFFFF" style="font-size:3px; font-family:Arial" x="120" y="290">Weekly: 1.5</text><text fill="#FFFFFF" style="font-size:3px; font-family:Arial" x="141" y="285">Total: 13.4 km</text><text fill="#FFFFFF" style="font-size:3px; font-family:Arial" x="141" y="290">Avg: 4.5 km</text><text fill="#FFFFFF" style="font-size:3px; font-family:Arial" x="167" y="285">Min: 3.5 km</text><text fill="#FFFFFF" style="font-size:3px; font-family:Arial" x="167" y="290">Max: 5.5 km</text><polyline fill="none" points="86.01620029448532,95.16146201401716 86.07584683364257,94.74145752942422 86.79160530213267,94.4614543892676 89.11782032391056,93.83144688571338 90.6686303387396,93.69144513556967 91.38438880699687,93.4814424540964 91.80191458016634,93.13143783481792 92.04050073656254,92.64143105311086 91.74226804124191,89.07137054228224 91.1458026508335,87.53133841301315 90.78792341658846,86.13130605244078 90.78792341658846,84.10125379735837 90.54933726065792,83.19122832361609 89.89322533132508,81.23116914916318 89.71428571431898,80.11113269306952 89.71428571431898,79.62111613946036 90.07216494833119,78.92109185346635 91.98085419717245,77.2410305045778 93.29307805583812,76.54100366675993 95.20176730467938,75.84097607806325 95.44035346084274,75.63096765521914 95.5,75.35095631948207 95.32106038299389,74.23090977605898 94.30706921941601,69.75070438685361 93.4123711339198,68.07061943953158 92.69661266566254,65.90050331671955 92.45802650949918,65.41047609708039 92.10014727525413,65.06045642972458 91.62297496316023,64.9904524734593 88.64064801181667,65.83049945085077 86.79160530213267,66.60054156387923 84.52503681881353,66.74054912320571 83.63033873331733,67.02056415192783 82.13917525764555,67.58059384860098 79.9322533137165,69.190676551254 78.97790868906304,69.54069400485605 77.18851251830347,69.61069747293368 73.55007363739423,70.66074859461514 71.52209131070413,70.94076194195077 69.19587628846057,70.87075861630728 66.0346097201109,71.78080126299756 63.76804123702459,72.06081412988715 60.84536082460545,72.76084577152506 60.36818851251155,72.76084577152506 59.89101620041765,72.55083635787014 59.234904271084815,71.85080449102679 58.57879234128632,70.66074859461514 57.62444771709852,69.33068355516298 57.26656848285347,68.70065180124948 56.84904270991683,66.81055289157666 56.610456553753465,65.13046037813183 56.133284241426736,63.03033865598263 54.88070692168549,58.83007494424237 53.687776141101494,53.579707302269526 52.55449189990759,49.8694220383768 50.466863033594564,41.74872410175158 50.22827687766403,40.48860674712341 49.989690721500665,40.068567088397685 49.63181148725562,39.92855380871333 48.737113401759416,39.99856045242632 47.0073637701571,41.25867875269614 45.1583210604731,42.02874984999653 43.60751104541123,42.86882637476083 42.6531664209906,43.21885794081027 40.3269513992127,43.56888931937283 39.07437407923862,43.91892051015748 36.39027982321568,44.26895151339704 33.46759941079654,45.24903732340317 31.558910161955282,45.599067613715306 29.41163475695066,46.15911568689626 26.310014727292582,46.71916327998042 22.19440353475511,46.999186896428 20.405007363762707,47.27921039267676 19.56995581742376,47.62923959392356 17.959499263670295,48.60932035947917 15.991163475671783,50.219449851079844 14.977172312093899,50.84949944046093 14.559646538691595,51.269532162405085 14.5,51.689564614149276 14.738586156163365,53.64971248188522 14.559646538691595,57.42998103512218 15.036818851018324,61.63025375461439 15.036818851018324,63.45036354084732 15.096465390175581,64.85044453875162 15.454344624187797,66.67054534726776 15.394698085263371,68.21062668343075 15.752577319508418,69.54069400485605 15.812223858432844,71.50078827602556 16.885861561167985,73.4608766627498 17.12444771686569,74.58092452725396 17.064801178174093,76.61100638413336 17.2437407951802,77.94105659192428 17.2437407951802,78.43107440666063 17.005154639016837,78.99109431583202 16.34904270991683,79.55111374473199 16.289396170759574,79.83112327888375 17.12444771686569,81.44117577048019 17.72091310750693,84.52126512676477 17.541973490500823,86.62131772009889 17.541973490500823,91.7314174825442 17.60162002942525,92.85143400472589 17.959499263670295,94.25145195558434 18.01914580259472,95.23146273533348 18.01914580259472,105.591486725898 18.138438880443573,107.13147625897545 18.257731958525255,107.761470930418 18.555964653845876,108.1114677072037 19.74889543442987,107.90146966360044 19.808541973354295,107.971469019074 19.689248895272613,108.1814670402091 19.74889543442987,108.3914649937069 20.285714285448194,109.65145129727898 20.583946980768815,110.00144706096034 21.180412370944396,110.07144619128667 22.552282768534496,109.37145455082646 24.93814432970248,108.60146287985845 26.608247422846034,108.2514663655893 28.397643593372777,107.761470930418 30.008100147126243,107.48147337359842 32.51325478637591,106.85147843230516 34.421944035217166,106.64147998334374 35.972754050046206,106.15148334001424 39.07437407923862,105.66148632898694 42.6531664209906,104.89149028295651 44.38291605282575,104.68149120360613 46.35125184059143,104.19149308942724 50.168630338739604,102.86149635456968 53.27025036816485,102.16149698506342 55.11929307808168,102.09149700670969 58.28055964666419,101.74149700300768 59.59278350509703,102.02149702102179 64.24521354911849,100.27149493858451 66.69072164944373,99.99149417004082 68.71870397636667,99.22149143763818 70.26951399119571,99.01149053499103 74.20618556719273,98.24148664675886 76.47275404981337,97.54148232430452 78.97790868906304,97.33148088119924 83.27245949907228,96.4914744333364 84.04786450671963,96.4914744333364 84.28645066241734,96.77147670259001" stroke="#4dd2ff" stroke-linecap="round" stroke-linejoin="round" stroke-width="0.5"><title>2023-02-04 4.3km</title></polyline><polyline fill="none" points="152.08009176887572,38.05553445179248 154.12179265078157,37.437181893736124 154.71454451978207,37.51447599247331 156.03177089546807,37.823652304767165 156.88796803960577,37.74635823915014 158.5345010093879,36.89612297032727 160.70792452897877,36.43235785554862 162.28859617980197,35.4275324170012 163.07893200521357,35.11835507734213 167.6892243195325,34.5 168.15025355131365,34.57729441381525 168.47956014494412,34.886471985431854 168.5454214636702,35.195649424684234 168.34783750772476,36.43235785554862 168.61128278262913,37.437181893736124 168.8088667388074,39.29223797732266 169.20403465162963,41.22458298859419 169.4016186078079,42.69316173379775 169.467479926534,44.470910949399695 169.26989597058855,46.0940694482415 169.86264783958904,47.71722429303918 170.19195443345234,49.263082652760204 170.25781575241126,50.113303337828256 170.06023179576732,51.73644913453609 170.38953838963062,53.97793017956428 170.19195443345234,57.14690873300424 170.38953838963062,59.69753989111632 169.9285091580823,63.948571770626586 169.599202564219,66.11272382753668 169.20403465162963,72.37326998927165 169.20403465162963,74.22823619126575 169.53334124549292,79.02021012594923 169.13817333290353,82.575525047665 169.4016186078079,84.81691022851737 169.4016186078079,87.52202099602437 169.13817333290353,89.68610230379272 169.599202564219,93.24136463896139 170.5212610270828,96.95118490967434 170.38953838963062,98.88337540900102 170.3236770706717,102.82502797414782 170.4553997083567,104.29348126490368 170.38953838963062,105.83921834040666 170.85056762117893,109.23982824425912 170.652983664535,110.32183712354163 170.4553997083567,111.17198581865523 169.99437047704123,111.86756127787521 169.33575728884898,112.25399179907981 166.89888849435374,112.87228020175826 164.13271310552955,114.18614129780326 162.28859617980197,115.34542851237347 161.69584431056865,115.5 159.06139155942947,115.11357121844776 155.10971243260428,114.18614129780326 150.69700407446362,114.57257057633251 148.58944187359884,114.495284737146 147.86496736714616,114.26342716999352 146.28429571609013,113.258710184542 145.16465329681523,113.10413821629481 139.50057988171466,113.95428363111569 136.9978497682605,114.03156952833524 133.902367785573,114.72714222985087 132.585141409887,115.26814275595825 131.92652822239324,115.34542851237347 130.21413393411785,115.11357121844776 128.5676009648014,115.26814275595825 126.52590008196421,115.26814275595825 123.89144733082503,114.3407130340347 121.19113326119259,113.64513996004825 120.532520073466,113.10413821629481 120.0714908419177,112.33127787825651 119.80804556654766,111.40384437947068 119.4787389729172,109.62626017333241 119.28115501650609,106.99851897265762 119.4787389729172,105.14363706641598 119.54460029164329,103.13417628384195 119.21529369754717,101.27928443788551 119.1494323790539,100.35183672589483 119.54460029164329,98.11049983045086 121.3887172176037,93.39594086469151 122.70594359282404,89.22237114160089 123.16697282437235,86.3626890523592 123.62800205615349,84.50775406591129 123.82558601233177,82.49823577940697 124.22075392515399,80.79786977788899 124.28661524364725,78.78834115242353 124.55006051901728,76.08319762104657 124.81350579415448,74.46010663092602 124.68178315623663,72.37326998927165 125.2086737069767,69.20435835549142 125.47211898188107,65.64897750498494 125.53798030083999,61.397955650347285 126.06487085088156,57.456076626549475 126.13073216960765,54.75085306231631 126.59176140092313,49.881425068713725 126.52590008196421,47.94910325820092 126.19659348856658,44.00715070706792 126.32831612601876,43.234216306882445 126.59176140092313,42.77045526920119 127.11865195119753,42.306693933089264 128.5676009648014,41.379170366039034 136.6026818556711,39.756001252448186 137.7881855936721,39.369531877106056 139.7640251570847,38.3647105320706 141.80572603922337,36.74153463187395 142.39847790822387,36.43235785554862 145.16465329681523,36.35506364086177 148.58944187359884,36.58694626041688 149.64322297391482,36.35506364086177 150.10425220546313,36.123180946859065 151.42147858114913,36.35506364086177" stroke="#4dd2ff" stroke-linecap="round" stroke-linejoin="round" stroke-width="0.5"><title>2023-01-30 3.5km</title></polyline><polyline fill="none" points="26.200437461258844,265.5 25.670509204966947,265.11728206728003 25.507454356877133,264.830243402248 25.58898178092204,264.5910443737521 27.382585109677166,263.3950473078294 28.523969046073034,263.3950473078294 29.339243286289275,263.2515274444013 30.236044950550422,262.8688075832906 31.214374039089307,262.6774475296843 32.6003402476199,261.9598465972813 34.35317986435257,262.2947271760204 36.47289288928732,262.0555267883756 37.491985689383,262.10336687610834 38.021913945674896,261.72064603021136 39.24482530611567,261.5771256283042 41.20148348296061,260.9073631427309 43.443487643729895,260.47680101383594 45.19632726046257,259.51999479564256 46.37847490888089,259.0894313282042 47.723677405389026,258.2761436449073 48.21284194965847,258.2761436449073 49.15040732594207,258.6588674452796 49.96568156615831,258.5631865259493 52.94143254333176,256.7930858183536 54.286635039839894,256.45820111079956 58.28147881734185,255.02297808870208 59.178280481603,254.49672849077615 61.99097661068663,254.30536484657205 63.25465168314986,253.87479634743067 63.539997667539865,253.63559144598548 63.539997667539865,253.3485453950998 64.02916221157648,252.9658170400653 64.06992592359893,252.0089947161323 62.60243229102343,248.75578346729162 62.76548713888042,247.60758559868555 62.35785001888871,246.2201758986339 62.43937744293362,244.9284457480535 61.50181206665002,243.06260670610936 61.2572297945153,241.91439418686787 60.645774114411324,240.43128197590704 61.05341123440303,238.9481648351648 60.84959267429076,236.46034436646733 61.134938658215106,235.5034866463102 61.909449186874554,235.07290000276407 64.19221705943346,234.4509407838923 67.16796803683974,234.54662687401287 68.5539342451375,233.68545132433064 69.81760931760073,233.1113333676476 71.81503120670095,232.53721467242576 73.4455796869006,232.34584160978557 75.27994672791101,231.3411316840793 76.5843855123967,230.95838445064146 78.17417028103955,229.9058278654702 79.56013648957014,229.61876654758817 81.14992125798017,228.75758148584282 83.71803511492908,228.8532687970437 84.28872708324343,229.0446433578618 84.4925456433557,229.3795486416784 82.37283261865377,225.21713654469931 81.84290436212905,224.4994753614301 81.39450353011489,223.39905930514215 79.56013648957014,220.91115212842124 76.86973149632104,215.8874511126196 76.25827581598423,213.590883234574 74.26085392734967,207.7537199963699 73.4455796869006,203.59110611327924 73.20099741523154,200.95954856046592 72.87488771881908,200.43323518690886 72.7118328709621,199.7155341312464 72.67106915870681,195.69638687954284 72.42648688657209,194.26096837036312 72.58954173489474,193.01693525913288 72.54877802263945,191.72505104824086 72.75259658275172,190.8159451012616 72.46725059882738,189.9068373014161 72.54877802263945,188.47140016057529 73.36405226308852,184.64354520017514 73.1194699909538,184.5 64.76290902774781,185.16987720516045 63.417706531472504,185.5048154303804 61.21646608249284,186.31823578759213 56.08023836859502,189.9068373014161 53.79747049557045,191.67720341304084 49.96568156615831,194.02173150298768 46.98993058898486,196.50978865104844 45.68549180449918,197.99304688628763 45.277854684507474,198.66290382761508 44.829453852260485,199.9547679448733 42.83203196339309,202.58633142529288 41.64988431497477,205.60064869976486 40.95690121082589,206.84464671646128 40.14162697037682,209.23694084433373 39.285589018370956,210.5287743389199 38.1034413697198,212.68182185001206 37.41045826533809,213.73441907326924 36.79900258523412,214.9783944078663 35.73914607288316,216.60512615001062 35.005399256478995,218.758144334628 33.864015320083126,220.81546311388956 33.41561448783614,222.39432923082495 30.969791766954586,226.89167481596814 30.480627222685143,227.322269355529 28.727787606185302,227.75286347948713 26.73036571731791,229.0446433578618 26.811893141362816,229.33170504510053 27.42334882169962,230.0493584550568 28.279386773938313,231.38897506523062 29.828407830558717,235.07290000276407 30.68444578279741,238.70895193127217 30.643682071007788,239.8571726998489 30.43986351089552,240.81402108303155 30.68444578279741,240.38343956452445 30.847500630887225,241.14891753232223 31.70353858335875,243.11044883038267 31.94812085526064,244.3065002677031 32.02964827930555,246.88996043032967 32.76339509570971,248.9949909846473 34.1493613042403,256.1233161519631 35.41303637670353,259.04159091736074 35.65761864883825,260.8595229265047" stroke="#4dd2ff" stroke-linecap="round" stroke-linejoin="round" stroke-width="0.5"><title>2023-01-06 5.5km</title></polyline></svg>