<?xml version="1.0" encoding="utf-8" ?>
<svg baseProfile="full" height="300mm" version="1.1" viewBox="0,0,200,300" width="200mm" xmlns="http://www.w3.org/2000/svg" xmlns:ev="http://www.w3.org/2001/xml-events" xmlns:xlink="http://www.w3.org/1999/xlink"><defs /><rect fill="#222222" height="300" width="200" x="0" y="0" /><text fill="#FFFFFF" style="font-size:12px; font-family:Arial; font-weight:bold;" x="10" y="20">Track</text><text fill="#FFFFFF" style="font-size:4px; font-family:Arial" x="10" y="280">ATHLETE</text><text fill="#FFFFFF" style="font-size:9px; font-family:Arial" x="10" y="290">Zzz</text><text fill="#FFFFFF" style="font-size:4px; font-family:Arial" x="120" y="280">STATISTICS</text><text fill="#FFFFFF" style="font-size:3px; font-family:Arial" x="120" y="285">Number: 8</text><text fill="#FFFFFF" style="font-size:3px; font-family:Arial" x="120" y="290">Weekly: 1.3</text><text fill="#FFFFFF" style="font-size:3px; font-family:Arial" x="141" y="285">Total: 41.1 km</text><text fill="#FFFFFF" style="font-size:3px; font-family:Arial" x="141" y="290">Avg: 5.1 km</text><text fill="#FFFFFF" style="font-size:3px; font-family:Arial" x="167" y="285">Min: 3.5 km</text><text fill="#FFFFFF" style="font-size:3px; font-family:Arial" x="167" y="290">Max: 5.6 km</text><polyline fill="none" points="65.98185699037276,54.285113021411235 66.00106723583303,54.33020260676858 66.13553895405494,54.285113021411235 66.07790821779054,54.14984420746623 66.15474919963162,53.63131294815685 66.34685165423434,53.0451456370356 66.5773745997576,52.7746063269733 67.0,52.48152168162051 66.96157950907946,52.34625170759682 66.80789754539728,52.3011616969161 65.61686232651118,52.70697144506266 64.73319103522226,52.84224118712882 63.772678762092255,53.29313969881332 62.6200640341267,53.586223212987534 61.14087513345294,54.33020260676858 60.14194236928597,54.39783696660015 59.06616862327792,54.172389015890076 56.5112059765961,54.623284675573814 56.08858057623729,54.78109792803298 55.493062966968864,55.277081664899015 54.74386339390185,55.637796375129255 52.99573105655145,55.72797495604027 52.073639274341986,55.90833200173802 50.72892209177371,56.02105507685337 50.44076840975322,56.133778091476415 50.01814300962724,56.539580443874 48.92315901815891,56.92283750217757 47.1942369263852,57.035560033415095 46.195304162218235,56.94538201323303 46.00320170761552,56.85520395435742 45.887940234853886,56.74248132642242 45.90715048031416,56.404313080071006 46.00320170761552,56.4494022110448 45.11953041621018,56.87774847273249 44.21664887946099,57.125738014961826 42.910352187929675,57.62171622204187 40.62433297757525,58.74893506994704 39.83671291358769,59.0420109807601 39.02988260413986,59.4703519619361 38.434364994755015,59.58307312775287 37.877267876290716,59.60561735369265 37.243329775868915,59.76342686744465 36.70544290286489,60.101589712372515 35.91782283899374,60.823001964439754 34.64994663815014,61.521867723800824 33.78548559232149,61.544411741851945 32.95944503741339,61.25133931823075 32.440768409869634,61.20625121683406 32.15261472784914,61.273883365342044 31.211312700179406,61.74730779592937 29.712913553928956,61.88257172322483 29.17502668092493,62.10801140869444 28.61792956246063,62.22073116080719 27.753468516631983,62.513802233632305 26.42796157952398,63.122487003027345 25.794023479218595,63.50573206519766 25.14087513333652,63.70862622713321 24.161152614746243,64.18204517714912 23.45037353259977,64.4300261066528 21.971184631809592,64.70055042360036 21.029882604139857,65.10633624644834 19.992529348935932,65.08379261018126 19.339381003170274,65.19651076744776 18.76307363936212,65.21905439169495 15.95837780146394,66.14334090375633 13.230522945639677,67.20288385976164 13.0,67.40577445519739 13.038420490920544,67.60866485492443 13.134471718338318,67.69883830309846 13.922091782325879,67.22542726894608 16.32337246532552,66.27860200387659 17.034151547471993,66.09825385105796 17.130202774773352,66.12079737859312 17.20704375661444,66.30114551207225 17.47598719317466,66.25605849320709 18.225186766358092,65.87281844262907 19.72358591260854,65.30922886439657 21.433297758805566,64.56528830860043 22.77801494137384,64.18204517714912 24.33404482388869,63.55081967364822 25.313767342595384,63.34792535947054 27.715048025595024,62.58143396170635 29.17502668092493,62.22073116080719 29.905016008531675,61.90511570261151 31.691568836802617,61.431691627265536 32.95944503741339,60.89063423618791 33.247598719317466,60.95826648621005 33.32443970115855,61.22879526874749 34.07363927422557,60.77791377117683 37.66595517611131,59.718338447026326 40.12486659560818,58.65875778449117 40.75880469579715,58.50094744183298 41.58484525082167,58.47840309746971 43.3713980789762,57.802071643745876 44.7545357523486,57.48644955432974 44.96584845252801,57.53153845324414 45.06189967982937,57.68934952332347 46.09925293503329,57.215915957815014 47.347918890067376,56.9904710281553 49.65314834576566,56.269045629305765 53.014941302128136,55.68288567046693 55.454642475931905,55.119268784619635 56.60725720389746,54.75855318494723 58.14407684095204,54.578195153095294 58.4514407684328,54.71346369149978 58.85485592309851,54.64582943319692 60.02668089652434,54.19493382185465 61.77481323364191,53.87930631870404 62.19743863400072,53.63131294815685" stroke="#4dd2ff" stroke-linecap="round" stroke-linejoin="round" stroke-width="0.5"><title>2023-03-19 5.6km</title></polyline><polyline fill="none" points="140.14655748661608,86.41096063519944 142.15420897689182,85.88736913434695 143.38110710971523,85.46195037855068 144.27339666092303,85.33105218067067 146.53200458711945,85.06925561628304 146.75507697509602,85.20015392653295 146.95026531431358,85.56012399026076 146.6714248295175,84.77473421298782 146.6714248295175,84.4147632230306 146.97814936272334,83.98934241486131 147.70313462323975,83.76026942650788 147.95409105939325,83.49847151487484 147.92620701086707,83.00759982538875 147.61948247766122,82.12402879504953 147.14545365364756,79.24422397959279 146.72719292656984,78.00066350051202 146.47623649029993,76.72437247715425 145.80701932683587,74.33540314037236 145.83490337536205,73.6481619226106 145.24933835747652,72.24094888646505 145.3329905028222,71.42279878968839 145.50029479374643,71.0628120524052 145.4166426481679,71.0628120524052 145.30510645429604,70.83372936211526 144.32916475774255,67.79018587278551 143.5762954489328,64.12480288883671 143.26957091572694,63.40481177260517 143.26957091572694,63.04481557753752 143.46475925506093,62.193913791910745 143.938788079191,61.57209944812348 144.49646904866677,60.62301195450709 148.06562725326512,53.32475778076332 149.45982967701275,50.77196399582317 152.55495905759744,44.2262413193821 154.2558860144345,41.57518368400633 155.5664362926036,40.298740311234724 156.51449394086376,39.64415189481224 157.88081231620163,39.0222915984923 160.05576809693594,37.254892257245956 162.09130363562144,36.07662034218083 164.01530298020225,34.66923403547844 165.68834588862956,33.81825311924331 167.38927284569945,33.29457137576537 168.89501146308612,33.065460330282804 171.26515558350366,33.0 171.59976416523568,33.163650799309835 171.71130035922397,33.49095213485998 171.32092368032318,37.9422154398344 171.43245987431146,41.215161734988214 171.57188011682592,42.589788709708955 172.12956108618528,45.109922079369426 172.24109728017356,46.05905782294576 172.60358991019893,47.36820572815486 172.79877824964933,48.808261936559575 173.3564592191251,50.90287701712805 173.71895184915047,52.0156354305218 175.08527022437192,54.89569718777784 177.12080576317385,58.59391844639322 177.87367507186718,59.673921509151114 178.3755879442906,60.75392074981937 179.68613822257612,62.128459710103925 179.85344251338392,62.42300296755275 179.85344251338392,62.717545940715354 179.37941368937027,63.20845026423922 178.54289223521482,63.60117315460229 177.26022600533906,63.83026127386256 176.4237045510672,64.12480288883671 175.25257451529615,64.38661741898977 174.30451686715242,64.45207101647975 172.79877824964933,64.77933879327611 171.54399606818333,64.87751905780169 170.09402554761618,65.36841990696848 168.6719390754588,65.46659998199902 166.9710121185053,66.02295314418734 165.15854896779638,66.44839899547515 163.65281035017688,67.07020340373856 158.52214543090668,67.82291230827104 157.65773992822506,68.11745006989804 155.90104487445205,69.00106164920726 155.23182771110442,69.03378795491881 153.8097412388306,68.90288271123427 150.1290468403604,69.59013461417635 149.43194562848657,69.62286085673259 148.95791680447292,69.7864920165448 147.75890272005927,69.7864920165448 146.9223812657874,70.08102788316319 145.6118309876183,70.27738496969687 144.97049787268043,70.24465879730997 144.69165738788433,70.14648025936913 143.54841140052304,70.31011113844579 143.4926433034707,70.57192036259221 144.18974451546092,72.27367484476417 144.6358892909484,75.08809412707342 145.91855552082416,79.24422397959279 146.97814936272334,83.95661771277082 147.17333770205732,85.82192013366148 147.0339174597757,87.0" stroke="#4dd2ff" stroke-linecap="round" stroke-linejoin="round" stroke-width="0.5"><title>2023-03-15 5.5km</title></polyline><polyline fill="none" points="19.961305409204215,147.0 21.00331752782222,146.84322000839165 21.751428792602383,146.52965977290296 21.831583570921794,146.31016740805353 21.804865311598405,145.369483978895 21.965174868237227,144.89914112980478 22.472821797942743,144.46015378812444 23.541552176116966,143.95845316236955 24.984338186564855,143.67624618220725 25.465266856830567,143.8016715402773 25.518703375710174,143.98980947665405 26.908052867394872,143.5194644088915 27.57600935373921,144.0211657876498 27.522572834859602,143.8016715402773 27.6294458725024,143.8016715402773 28.083656283211894,143.29996978509007 28.24396583996713,143.26861339673633 28.350838877959177,143.5194644088915 28.564584953477606,142.13978117975057 29.232541439821944,141.82621590187773 29.39285099657718,141.63807657372672 29.312696218141355,140.44652468513232 28.91192232631147,137.62440874244203 28.297402358963154,135.1158383761649 27.763037169817835,133.45389865874313 27.65616413205862,132.57588895747904 27.335545018548146,131.3529424808221 27.095080683473498,129.6596235317993 27.04164416459389,129.56554996941122 27.014925905154087,129.6596235317993 26.908052867394872,129.62826568097807 26.667588532320224,129.00110795919318 26.266814640373923,126.21023978764424 25.545421635149978,123.3566279374063 25.331675559515134,121.85141486415523 25.518703375710174,120.72249997468316 26.53399723500479,118.74688843084732 26.908052867394872,117.71203896176303 28.19052932120394,115.83048508950742 28.564584953477606,115.01514131820295 28.85848580743186,113.91755957429996 31.263129158411175,109.49583138796152 31.8509308664361,108.1473477841937 32.49216909322422,107.14382106589619 33.88151858502533,103.94505666434998 35.858669784502126,100.62081343881437 36.36631671420764,100.18175962098758 38.744241805630736,98.89595536177512 39.94656348123681,97.89239688875386 42.244333794224076,96.7006667277019 44.141330215497874,95.19531642273068 46.385664009605534,93.81540516711539 47.40095786890015,93.50178806434269 49.778882960323244,93.12544709682697 51.88962545723189,93.0 52.156808051862754,93.09408532772795 52.26368108962197,93.25089413975365 52.34383586794138,93.7213200716069 52.02321675454732,95.0698702140653 52.10337153286673,100.58945247362135 52.317117608501576,102.56518670619698 52.71789150033146,104.13322024501394 53.03851061372552,106.51661511795828 53.439284505555406,108.11598762639915 54.801915737916715,112.19277993828291 55.44315396458842,113.29036815653672 56.05767393205315,114.73290640613413 57.04624953190796,116.39495252244524 57.63405123981647,118.0256300966721 58.56919032079168,119.62493965373142 59.931821552920155,121.34967545143445 60.0386945909122,121.75733878987376 59.824948515277356,121.97684958289028 59.39745636389125,122.13364290556638 58.32872598571703,122.44722929882118 57.52717820217367,122.50994653708767 55.950800894293934,123.07440107635921 54.66832444036845,123.29391088071861 53.27897494880017,123.41934498064802 52.530863684020005,123.26255234735436 51.72931590047665,122.9176082581107 51.38197852752637,122.88624968432123 50.446839446784,123.32526941079414 49.61857340356801,123.32526941079414 49.24451777129434,123.38798646067153 47.45439438777976,124.54824945892324 46.78643790143542,124.64232463535154 45.93145359889604,125.1754167303734 44.729131923406385,125.55171644757502 44.88944148027804,125.20677505858475 45.023032777477056,125.55171644757502 45.236778852995485,128.21715891564963 45.50396144774277,128.93839211316663 45.31693363143131,129.69098137918627 45.744425782817416,130.5689997417503 45.7177075232612,131.16479641510523 46.09176315565128,131.98009515900048 46.06504489609506,132.60724649223266 46.89331093931105,134.04968945475412 47.1604935338255,135.33533914230065 47.374239609460346,135.93112610530807 47.1604935338255,136.99726816808106 47.587985684978776,138.1888341095182 47.507830906659365,138.43968947854592 47.32080309058074,138.627830864134 46.19863619341049,139.03547011772753 42.77869898325298,139.81939016230172 42.21761553478427,140.0075306603685 41.06873037817422,140.22702775511425 40.05343651887961,140.60330810578307 39.091579178581014,140.6346647797618 37.5953566491371,140.91687469475437 36.580062789842486,140.91687469475437 34.656348109128885,141.60672000731574 33.10668906068895,141.5753634374123 30.00737096404191,142.07706815109123 29.606597072212026,141.9516420533182 29.366132737137377,141.60672000731574 28.88520406698808,141.98299858282553 28.564584953477606,142.64148492520326 28.457711915601976,142.61012846633093" stroke="#4dd2ff" stroke-linecap="round" stroke-linejoin="round" stroke-width="0.5"><title>2023-03-07 5.6km</title></polyline><polyline fill="none" points="139.9866280517308,147.0 140.51039398426656,147.0 140.62066049629357,146.35296314075822 140.75849363638554,146.12649991214857 142.05412515380885,145.47946117990068 143.73568946355954,145.25299729584367 145.08645423687994,144.80006901791785 145.96858633379452,144.63830875389976 146.68531866255216,144.41184423852246 147.153951338958,144.4441963226709 147.3469177352963,144.6706608136883 147.07125145487953,143.08540580738918 146.9058516867226,141.14426588607603 146.57505215029232,139.55899235402467 144.83835458452813,133.2825215041521 144.64538818842266,132.15015461383155 144.09405562793836,130.5001266800973 144.17675551201683,130.07952988124453 145.1691541209584,129.82070079055848 145.38968714524526,129.6265788268065 145.49995365727227,129.3030419430579 145.05888760881498,126.94121218129294 144.53512167627923,124.99996839714004 144.45242179231718,123.9322789918806 144.03892237180844,122.9616489810287 144.09405562793836,122.2822061154584 144.3145886521088,121.63511624964303 144.8659212125931,120.79389734903816 145.19672074902337,119.95267610295559 146.07885284582153,118.3672912248876 147.0988180829445,115.4553381120495 148.09121669188607,113.90228495918564 149.08361530094407,111.89624613706837 149.63494786142837,111.11971139878733 150.57221321447287,109.3725009294576 151.37164542719256,107.68999239458935 151.67487833555788,106.81637849271647 152.5845770605374,105.58684352968703 152.99807648092974,104.26023439655546 153.74237543763593,103.32189758465393 154.679640790564,101.5099285839824 156.4714716123417,99.92444677982712 158.12546929402743,99.01845343594323 160.6891657008091,97.14174428125261 161.4334646575153,96.81817255727947 162.2880301262485,96.0739562746603 166.11979142215569,93.71186634569312 167.4705561955925,93.35593338287435 168.60078794474248,93.29121825358015 170.17208574223332,93.06471519180923 170.861251442926,93.0970727824315 171.6055503997486,93.0 171.853650051984,93.16178795348969 171.93634993617889,94.10015637168544 171.71581691189203,95.42681018865551 171.63311702769715,97.88595792930573 171.71581691189203,101.76878196466714 172.10174970410299,103.35425407497678 173.23198145336937,109.30778923633625 173.72818075784016,111.34620090393582 174.55517959862482,113.51402042180416 175.96107762819156,116.16715146854403 177.86317496199626,119.49970984499669 179.8755388080608,121.79688884629286 180.0133719482692,122.15278825338464 179.98580532020424,122.41162392223487 179.62743915594183,122.70281378409709 178.41450752259698,123.18812959620846 176.31944379257038,123.80286183749558 175.57514483574778,124.15875887838774 174.16924680629745,124.28817588012316 172.6530822648201,124.61171814141562 171.79851679585408,124.708780752233 169.758586321841,125.25880162327667 167.6083893358009,126.13236212238553 164.1901274601696,126.87650425636093 164.0798609481426,127.00592009225511 164.10742757609114,127.26475159754045 164.41066048434004,127.87947553294362 164.41066048434004,128.30007539864164 164.74146002077032,128.94715097019798 164.71389339270536,129.1736270924157 164.9344264169922,129.5618714778102 165.320359209436,129.82070079055848 165.29279258137103,130.6942480817961 165.81655851379037,131.37367200429435 165.84412514185533,131.56779284402728 165.6235921176849,131.66485321713844 164.30039397242945,131.47073243980412 163.91446117998566,131.72956011502538 163.14259559521452,132.60310187985306 162.01236384606455,133.0560484660382 161.54373116942588,133.5413476252288 159.83460023184307,133.67076060254476 158.15303592209239,134.57664988949546 157.54657010547817,134.80312178627355 156.08553882001434,134.93253422231646 154.90017381485086,134.83547490043566 154.04560834588483,134.997240419616 153.19104287703522,135.41783036352717 152.36404403636698,135.67665465301252 148.17391657596454,136.29136145068333 147.62258401548024,136.51783206046093 147.4020509913098,136.7766554064001 147.37448436312843,137.06783140517655 147.78798378363717,139.7854605112807 148.11878332006745,140.88544628646923 148.36688297218643,142.40600825534784 149.02848204481415,143.95891469807248 149.13874855695758,144.37949215105618 148.97334878891706,145.05888526001945 148.3117497160565,145.15594129363308 148.03608343598899,145.25299729584367" stroke="#4dd2ff" stroke-linecap="round" stroke-linejoin="round" stroke-width="0.5"><title>2023-03-03 5.4km</title></polyline><polyline fill="none" points="21.018392910831608,205.53053190474748 21.071674614795484,205.15534737476264 21.33808313542977,204.84269323103945 22.963175110751763,204.2173839379975 25.3874926478602,203.74840108829085 26.9593029191019,203.6546044278075 27.545401664217934,203.74840108829085 27.012584623182192,198.93346687816666 26.479767582030036,197.05749696362182 26.02687309717294,195.9319092220976 25.893668836914003,194.5874515035248 25.360851795761846,192.02358471913612 25.014520718948916,191.11684594809776 25.25428838748485,190.7416428734432 26.29328161769081,190.05376931565115 26.9593029191019,189.77236602891935 27.758528480655514,189.6472978143429 29.0905710834777,189.30335994751658 30.02300090540666,188.86562025762396 31.035353283397853,188.58421582414303 32.3407550342381,188.05267337572877 32.71372696291655,188.02140614271048 33.61951593274716,188.2402767034655 34.12569212191738,188.2402767034655 37.02954499586485,187.3022588576714 37.988615669775754,187.17718958357 39.027608899981715,186.83324880321743 40.62606002332177,186.73944670183118 42.67740563151892,186.30170316275326 43.15694096847437,186.02029625501018 43.290145228849724,185.5512841384916 43.42334948910866,185.3949465987098 45.87430787808262,184.6445252407284 47.15306877682451,184.6445252407284 48.59167478769086,184.36311673355522 49.63066801778041,183.98790496826405 50.61637954390608,183.86283427249873 51.52216851373669,183.5188895825704 52.50788003974594,183.5188895825704 55.25188780145254,183.08114120861865 57.62292363436427,182.48705307848286 58.63527601258829,182.6433921774733 58.9283253850881,182.45578524869052 58.98160708916839,182.174374629074 58.90168453298975,181.92423162813066 58.182381527498364,180.95492547229514 57.78276874672156,180.04815228038933 55.97119080694392,177.5466943719075 54.34609883162193,174.57618523063138 53.06733793299645,171.98087352418224 52.0816264069872,167.79080345545663 51.815217886236496,166.9777978094935 51.44224595755804,166.19605947329546 51.069274028763175,163.81956205854658 51.12255573295988,163.03781525336672 50.85614721244201,160.56748157012044 50.909428916405886,156.37724745314335 51.30904169729911,154.3446495073149 51.25575999321882,154.03194087315933 51.09591488086153,153.9381282174145 51.282400845433585,153.18762588506797 51.069274028763175,153.0 49.550745461601764,153.25016781984596 47.739167521940544,153.2814387822582 46.51368832739536,153.53160636062967 45.581258505466394,153.8130446295836 43.476631193072535,154.8449826243741 40.78590513567906,156.53360055427765 39.00096804788336,157.97204514947953 36.656573067069985,159.50429354136577 35.16468535200693,160.72383242374053 34.498664050595835,161.4430452704546 34.09905126981903,161.5681255843374 33.59287508064881,162.6625760422903 32.900212927372195,163.60067316441564 31.328402656014077,167.07160626904806 30.848867319175042,167.79080345545663 30.475895390380174,169.13538474074448 28.797521710861474,172.0434114272939 28.211422965629026,173.20036021541455 27.51876081211958,174.8576031838311 26.879380362923257,175.92073522257851 26.319922469672747,176.6399105800956 25.733823724556714,178.14079256838886 25.067802423262037,179.17264445358887 24.455062825931236,180.4859052079264 24.055450045038015,180.82985347564681 22.963175110751763,181.07999741545063 21.897541028563865,182.2369103457895 22.057386140921153,182.2369103457895 22.29715380934067,182.45578524869052 23.096379371127114,183.92536962707527 23.522633004002273,185.05100371601293 23.868964080698788,186.8645161636232 24.90795731090475,190.33517233090242 25.573978612199426,193.49312087733415 26.29328161769081,195.77557724775397 26.426485877949744,196.8386330208159 27.33227484789677,200.43423412073753 27.678605924593285,202.2476509012049 28.024937001173384,205.092816572811 28.024937001173384,207.0" stroke="#4dd2ff" stroke-linecap="round" stroke-linejoin="round" stroke-width="0.5"><title>2023-02-10 5.6km</title></polyline><polyline fill="none" points="180.677466862835,193.44097467605025 180.71723122242838,193.16097168630222 181.1944035347551,192.9743029261881 182.74521354935132,192.55429792380892 183.77908689249307,192.4609634237131 184.25625920458697,192.32096163605456 184.5346097201109,192.08762522324105 184.69366715755314,191.76095403541694 184.49484536075033,189.38091369488393 184.09720176737756,188.35422560866573 183.8586156112142,187.4208707016369 183.8586156112142,186.06750253157225 183.69955817377195,185.46081888242043 183.2621502210386,184.1541127661185 183.14285714295693,183.40742179538938 183.14285714295693,183.08074409299297 183.38144329888746,182.61406123565394 184.65390279819258,181.4940203363949 185.52871870389208,181.02733577784966 186.8011782031972,180.56065071871853 186.96023564063944,180.42064510346972 187.0,180.2339708796644 186.88070692191832,179.48727318402962 186.20471281302162,176.50046959126485 185.6082474226132,175.38041295966832 185.1310751105193,173.93366887781303 184.97201767284423,173.60698406473966 184.73343151668087,173.3736376198067 184.4153166420292,173.32696831563953 182.42709867446683,173.8869996338908 181.1944035347551,174.40036104261526 179.68335787928663,174.49369941547047 179.08689248887822,174.68037610128522 178.09278350509703,175.05372923242976 176.62150220922194,176.1271177008457 175.98527245945297,176.36046266992344 174.79234167886898,176.40713164862245 172.36671575834043,177.10716572977253 171.01472754054703,177.29384129462414 169.463917525718,177.24717241089093 167.35640648007393,177.85386750867474 165.84536082460545,178.0405427532387 163.89690721640363,178.50723051436944 163.57879234151915,178.50723051436944 163.2606774668675,178.3672242386092 162.82326951413415,177.9005363273609 162.38586156093515,177.10716572977253 161.749631811399,176.22045570344198 161.51104565523565,175.80043453417602 161.23269513994455,174.54036859440384 161.0736377025023,173.42030691876425 160.75552282761782,172.0202257706551 159.92047128104605,169.22004996286705 159.12518409406766,165.71980486818939 158.36966126644984,163.24628135890816 156.97790868906304,157.83248273449135 156.81885125185363,156.99240449810168 156.6597938144114,156.7123780589609 156.42120765824802,156.61903587248526 155.8247422678396,156.66570696831332 154.671575846849,157.50578583512106 153.4388807071373,158.01916656666435 152.40500736352988,158.5792175831739 151.76877761399373,158.81257196055958 150.21796759939753,159.04592621291522 149.38291605282575,159.2792803401244 147.59351988206618,159.5126343422744 145.64506627386436,160.16602488228818 144.37260677455924,160.39937840914354 142.9410898378119,160.77274379128357 140.8733431515284,161.14610885333968 138.12960235658102,161.33279126428533 136.9366715757642,161.51947359513724 136.37997054494917,161.75282639596844 135.30633284244686,162.4062135729764 133.9941089837812,163.47963323406293 133.31811487465166,163.89966629364062 133.03976435912773,164.17968810829916 133.0,164.45970974277589 133.15905743744224,165.76647498793318 133.03976435912773,168.2866540234536 133.35787923401222,171.0868358364096 133.35787923401222,172.30024236056488 133.39764359337278,173.23362969252048 133.63622974953614,174.44703023150214 133.59646539017558,175.47375112230657 133.83505154633895,176.36046266992344 133.8748159056995,177.66719218401704 134.5905743741896,178.97391777517623 134.749631811399,179.72061635152204 134.70986745227128,181.0740042561083 134.82916053012013,181.9607043946162 134.82916053012013,182.28738293776405 134.6701030926779,182.660729543888 134.23269513994455,183.03407582981163 134.192930780584,183.22074885258917 134.749631811399,184.29411718033953 135.14727540500462,186.34751008453895 135.02798232692294,187.7475451467326 135.02798232692294,191.15427832168643 135.0677466862835,191.9009560031409 135.30633284244686,192.834301303752 135.3460972015746,193.48764182356535 135.3460972015746,200.394324483932 135.42562592029572,201.4209841726697 135.50515463901684,201.84098062029807 135.70397643581964,202.07431180481217 136.49926362303086,201.93431310908636 136.5390279821586,201.98097934608813 136.45949926343746,202.12097802679637 136.49926362303086,202.26097666248097 136.85714285704307,203.10096753152902 137.05596465384588,203.33429804065963 137.45360824745148,203.38096412754385 138.36818851227872,202.9143030339037 139.95876288646832,202.40097525325837 141.07216494856402,202.1676442437456 142.26509572891518,201.84098062029807 143.3387334314175,201.65431558241835 145.00883652432822,201.2343189548992 146.2812960234005,201.09431998891523 147.31516936677508,200.7676555600192 149.38291605282575,200.4409908859816 151.76877761399373,199.92766018863767 152.92194403521717,199.7876608024235 154.23416789388284,199.4609953929612 156.77908689249307,198.57433090306586 158.84683357877657,198.10766465670895 160.07952871872112,198.06099800451193 162.18703976436518,197.8276646687009 163.0618556700647,198.01433134736726 166.16347569948994,196.84766329242848 167.7938144330401,196.66099611337995 169.14580265106633,196.14766095843515 170.17967599420808,196.00766035667039 172.80412371153943,195.49432443117257 174.31516936654225,195.02765488286968 175.98527245945297,194.8876539208286 178.84830633271486,194.32764962222427 179.36524300440215,194.32764962222427 179.52430044161156,194.51431780171697" stroke="#4dd2ff" stroke-linecap="round" stroke-linejoin="round" stroke-width="0.5"><title>2023-02-04 4.3km</title></polyline><polyline fill="none" points="44.72006117901765,215.370356301195 46.08119510021061,214.95812126251985 46.476363013032824,215.00965066163917 47.35451393015683,215.2157682031975 47.925312026171014,215.1642388261389 49.02300067269243,214.5974153135612 50.47194968583062,214.28823857035604 51.525730786146596,213.61835494465777 52.05262133665383,213.4122367182281 55.12614954612218,213.0 55.433502367231995,213.05152960919077 55.65304009639658,213.2576479903073 55.696947642136365,213.46376628312282 55.56522500491701,214.28823857035604 55.74085518810898,214.95812126251985 55.872577825561166,216.1948253182054 56.13602310069837,217.48305532571976 56.26774573838338,218.46210782256094 56.31165328412317,219.64727396628587 56.17993064667098,220.7293796321901 56.5750985594932,221.81148286204552 56.794636288657784,222.84205510184984 56.8385438346304,223.4088688918855 56.706821196945384,224.49096608971013 56.9263589263428,225.9852867863956 56.794636288657784,228.09793915535556 56.9263589263428,229.79835992743028 56.61900610500015,232.63238118044683 56.39946837583557,234.0751492183772 56.13602310069837,238.24884665952413 56.13602310069837,239.48549079420627 56.35556083009578,242.68014008397586 56.09211555495858,245.05035003178637 56.26774573838338,246.54460681902128 56.26774573838338,248.34801399736898 56.09211555495858,249.79073486919515 56.39946837583557,252.1609097593173 57.01417401782237,254.63412327313563 56.9263589263428,255.92225027267705 56.882451380370185,258.550018649461 56.970266472082585,259.5289875099261 56.9263589263428,260.55947889361414 57.233711747219786,262.8265521628491 57.10198910953477,263.5478914156847 56.970266472082585,264.1146572124562 56.66291365097277,264.57837418527924 56.22383819241077,264.8359945327102 54.59925899608061,265.2481868011819 52.7551420701202,266.1240941985743 51.525730786146596,266.8969523416017 51.13056287355721,267.0 49.374261039309204,266.7423808123276 46.739808288170025,266.1240941985743 43.79800271592103,266.3817137175647 42.392961248755455,266.3301898247737 41.90997824445367,266.1756181133387 40.856197143904865,265.50580678970437 40.10976886423305,265.402758810902 36.333719920832664,265.9695224207535 34.66523317852989,266.0210463522526 32.601578523404896,266.48476148658665 31.723427606280893,266.84542850399157 31.284352147951722,266.8969523416017 30.142755955690518,266.7423808123276 29.04506730963476,266.84542850399157 27.68393338774331,266.84542850399157 25.927631553728133,266.2271420227189 24.127422173973173,265.76342664001277 23.68834671541117,265.402758810902 23.380993894301355,264.88751858551404 23.205363710876554,264.2692295863235 22.98582598171197,263.0841734489077 22.854103344026953,261.33234598179115 22.98582598171197,260.0957580442773 23.029733527451754,258.756117522571 22.810195798054338,257.51952295860974 22.766288252547383,256.9012244839105 23.029733527451754,255.40699988696724 24.259144811425358,252.2639605764707 25.13729572831653,249.48158076108666 25.444648549426347,247.57512603493524 25.752001370536163,246.33850271062693 25.88372400798835,244.99882385297678 26.14716928312555,243.86524651860236 26.191076828865334,242.52556076832116 26.366707012290135,240.72213174737408 26.542337195947766,239.640071087284 26.454522104002535,238.24884665952413 26.805782471084967,236.13623890368035 26.981412654276937,233.7659850033524 27.025320200249553,230.93197043356486 27.376580567099154,228.30405108438572 27.42048811283894,226.50056870823028 27.727840933715925,223.25428337915218 27.68393338774331,221.96606883881032 27.464395658811554,219.33810047138832 27.552210750291124,218.82281087126466 27.727840933715925,218.51363684615353 28.079101300565526,218.2044626220595 29.04506730963476,217.58611357735936 34.40178790362552,216.50400083500426 35.19212372880429,216.24635458475677 36.509350104490295,215.57647368806647 37.870484025916085,214.494356421259 38.26565193850547,214.28823857035604 40.10976886423305,214.23670909393695 42.392961248755455,214.39129750692518 43.09548198222183,214.23670909393695 43.40283480333164,214.08212063123938 44.28098572045565,214.23670909393695" stroke="#4dd2ff" stroke-linecap="round" stroke-linejoin="round" stroke-width="0.5"><title>2023-01-30 3.5km</title></polyline><polyline fill="none" points="140.800291640684,267.0 140.44700613652822,266.74485471152 140.33830290450715,266.553495601489 140.3926545205759,266.3940295824723 141.5883900730405,265.5966982052196 142.3493126973044,265.5966982052196 142.89282885740977,265.5010182962578 143.49069663358387,265.24587172217434 144.14291602594312,265.11829835310346 145.06689349829685,264.63989773151116 146.2354532427853,264.86315145067056 147.64859525940847,264.7036845255643 148.32799045951106,264.73557791739586 148.68127596366685,264.4804306868173 149.4965502039995,264.38475041885977 150.8009889884852,263.93824209514423 152.29565842915326,263.6512006758712 153.4642181735253,263.013329863752 154.25231660576537,262.72628755212645 155.14911827014294,262.1840957632521 155.47522796632256,262.1840957632521 156.10027155058924,262.43924496351974 156.6437877106946,262.3754576839565 158.6276216955157,261.19539054555935 159.52442335977685,260.972134073847 162.18765254481696,260.0153187258111 162.78552032099105,259.66448566049803 164.66065107367467,259.5369098976953 165.5031011219835,259.24986423162045 165.69333177816588,259.09039429732366 165.69333177816588,258.89903026339016 166.0194414742291,258.6438780267199 166.04661728220526,258.0059964774118 165.0682881938992,255.8371889781847 165.17699142580386,255.07172373245703 164.9052333458094,254.1467839324032 164.95958496176172,253.28563049869263 164.33454137761146,252.0417378040729 164.17148652952164,251.27626279124524 163.76384940952994,250.28752131725196 164.0356074895244,249.29877655676682 163.89972844952717,247.64022957763518 164.08995910547674,247.00232443088316 164.60629945772234,246.71526666849968 166.12814470625017,246.30062718925183 168.1119786911877,246.36441791598918 169.03595616330858,245.7903008828871 169.8784062116174,245.40755557842203 171.21002080431208,245.02480978160747 172.2970531245228,244.89722773985704 173.5199644851964,244.22742112271953 174.38959034148138,243.97225630041794 175.44944685383234,243.27055191030377 176.37342432618607,243.0791776983824 177.43328083853703,242.5050543238758 179.14535674324725,242.5688458646764 179.5258180553792,242.6964289052121 179.66169709549285,242.91969909443287 178.2485550789861,240.1447576964565 177.8952695747139,239.66631690762006 177.59633568662684,238.9327062034281 176.37342432618607,237.2741014189378 174.57982099754736,233.92496740841307 174.17218387732282,232.39392215639236 172.84056928486098,228.50247999755084 172.2970531245228,225.7274040755001 172.1339982766658,223.97303237364395 171.91659181250725,223.62215679127257 171.80788858048618,223.14368942083092 171.7807127723936,220.46425791969523 171.61765792430378,219.50731224688934 171.72636115644127,218.67795683941222 171.6991853483487,217.81670069880784 171.83506438834593,217.21063006750774 171.64483373239636,216.60455820092466 171.6991853483487,215.6476001070405 172.24270150857046,213.09569680009736 172.07964666048065,213.0 166.50860601838212,213.4465848034306 165.61180435412098,213.66987695358694 164.14431072154548,214.21215719170868 160.72015891224146,216.60455820092466 159.19831366359722,217.78480227536056 156.6437877106946,219.34782100198208 154.6599537258735,221.00652576735592 153.7903278695885,221.99536459086812 153.51856978947762,222.44193588505732 153.219635901507,223.30317862989614 151.88802130892873,225.05755428349948 151.09992287657224,227.06709913318628 150.63793414039537,227.89643114429782 150.0944179801736,229.4912938962225 149.52372601209208,230.3525162259466 148.73562757961918,231.78788123335107 148.2736388434423,232.48961271549342 147.8660017234506,233.3189296052442 147.15943071513902,234.403417433321 146.67026617086958,235.8387628897326 145.90934354660567,237.21030874259304 145.61040965851862,238.2628861538542 143.9798611778533,241.26111654395936 143.65375148167368,241.54817957035266 142.48519173741806,241.8352423196484 141.1535771448398,242.6964289052121 141.20792876090854,242.88780336338095 141.61556588113308,243.36623897004756 142.1862578492146,244.25931671014405 143.2189385535894,246.71526666849968 143.78963052167092,249.13930128750508 143.76245471381117,249.90478179987986 143.62657567381393,250.54268072202103 143.78963052167092,250.25562637633993 143.8983337538084,250.76594502152875 144.46902572212275,252.07363255356904 144.63208057009615,252.87100017844932 144.6864321861649,254.5933069535531 145.17559673031792,255.99666065644124 146.09957420278806,260.74887743464205 146.94202425109688,262.69439394489746 147.1050790991867,263.9063486176601" stroke="#4dd2ff" stroke-linecap="round" stroke-linejoin="round" stroke-width="0.5"><title>2023-01-06 5.5km</title></polyline></svg>