<?xml version="1.0" encoding="utf-8" ?>
<svg baseProfile="full" height="300mm" version="1.1" viewBox="0,0,200,300" width="200mm" xmlns="http://www.w3.org/2000/svg" xmlns:ev="http://www.w3.org/2001/xml-events" xmlns:xlink="http://www.w3.org/1999/xlink"><defs /><rect fill="#222222" height="300" width="200" x="0" y="0" /><text fill="#FFFFFF" style="font-size:12px; font-family:Arial; font-weight:bold;" x="10" y="20">Track</text><text fill="#FFFFFF" style="font-size:4px; font-family:Arial" x="10" y="280">ATHLETE</text><text fill="#FFFFFF" style="font-size:9px; font-family:Arial" x="10" y="290">Zzz</text><text fill="#FFFFFF" style="font-size:4px; font-family:Arial" x="120" y="280">STATISTICS</text><text fill="#FFFFFF" style="font-size:3px; font-family:Arial" x="120" y="285">Number: 6</text><text fill="#FFFFFF" style="font-size:3px; font-family:Arial" x="120" y="290">Weekly: 1.2</text><text fill="#FFFFFF" style="font-size:3px; font-family:Arial" x="141" y="285">Total: 30.0 km</text><text fill="#FFFFFF" style="font-size:3px; font-family:Arial" x="141" y="290">Avg: 5.0 km</text><text fill="#FFFFFF" style="font-size:3px; font-family:Arial" x="167" y="285">Min: 3.5 km</text><text fill="#FFFFFF" style="font-size:3px; font-family:Arial" x="167" y="290">Max: 5.6 km</text><polyline fill="none" points="23.28174054552801,106.0 24.671090037096292,105.79096001115977 25.668571723625064,105.37287969718454 25.775444761151448,105.08022321073804 25.73982041538693,103.82597863851697 25.95356649090536,103.1988548397494 26.630429063923657,102.61353838414652 28.055402901489288,101.94460421649273 29.979117582086474,101.5683282429236 30.620355809107423,101.73556205368368 30.69160450086929,101.98641263553873 32.54407048993744,101.35928587851231 33.434679138241336,102.02822105019004 33.36343044647947,101.73556205368368 33.5059278300032,101.73556205368368 34.1115417110268,101.06662638011039 34.32528778677806,101.0248178623151 34.467785170534626,101.35928587851231 34.75277993804775,99.51970823967713 35.64338858635165,99.10162120248424 35.85713466210291,98.85076876493986 35.75026162434369,97.26203291348065 35.21589643508196,93.49921165659907 34.39653647853993,90.15445116822957 33.68404955975711,87.93853154499084 33.54155217600055,86.76785194329568 33.11406002473086,85.13725664108642 32.79344091122039,82.87949804236996 32.72219221945852,82.75406662587193 32.686567873694,82.87949804236996 32.54407048993744,82.83768757464713 32.223451376426965,82.00147727894364 31.68908618716523,78.28031971683959 30.727228846866637,74.47550391653203 30.44223407935351,72.46855315222638 30.69160450086929,70.96333329958725 32.04532964667305,68.3291845744534 32.54407048993744,66.9493852823507 34.254039094783366,64.44064678600989 34.75277993804775,63.35352175758453 35.14464774332009,61.89007943242905 38.35083887795918,55.99444185063476 39.13457448850386,54.196463712258264 39.98955879104324,52.85842808787129 41.84202478011139,48.59340888579027 44.47822637925856,44.16108458506642 45.155088952276856,43.5756794946501 48.32565574091859,41.86127381568076 49.928751308238134,40.52319585168152 52.992445058887824,38.93422230362194 55.52177362050861,36.92708856362151 58.514218679396436,35.08720688949688 59.8679438252002,34.66905075247632 63.038510613841936,34.1672627957596 65.85283394297585,34.0 66.20907740248367,34.12544710360817 66.35157478624023,34.33452551966184 66.45844782376662,34.961760095495265 66.03095567272976,36.75982695206767 66.13782871048898,44.11926996483817 66.4228234780021,46.75358227491961 66.957188667031,48.84429365998949 67.3846808183007,52.02215349060134 67.91904600756243,54.1546501685516 69.7358876504004,59.59037325103418 70.59087195293978,61.05382420873502 71.41023190948181,62.97720854150248 72.72833270928822,65.19327002993668 73.5120683198329,67.3675067955628 74.75892042787746,69.49991953829885 76.57576207071543,71.79956726857927 76.71825945447199,72.34311838651774 76.43326468695886,72.63579944384401 75.86327515193261,72.84485720744124 74.43830131436698,73.26297239842825 73.36957093630917,73.34659538278356 71.26773452572525,74.09920143513591 69.55776592064649,74.39188117429148 67.70529993157834,74.55912664087373 66.70781824551523,74.35006979646278 65.63908786745742,73.8901443441282 65.17597136995755,73.8483329124283 63.92911926237866,74.43369254772551 62.824764538090676,74.43369254772551 62.32602369505912,74.51731528088567 59.939192516962066,76.06433261188795 59.04858386865817,76.18976618046872 57.908604798605666,76.90055564048816 56.30550923128612,77.4022885967861 56.51925530703738,76.94236674479907 56.697377036558464,77.4022885967861 56.98237180407159,80.95621188753285 57.33861526357941,81.91785615088884 57.089244841830805,82.92130850555259 57.65923437708989,84.09199965564767 57.62361003109254,84.88639522015 58.122350874124095,85.97346021200065 58.086726528126746,86.80966198965325 59.19108125241473,88.73291927299579 59.547324711689726,90.44711885642027 59.83231947920285,91.24150147376349 59.547324711689726,92.66302422410809 60.11731424671598,94.25177881270065 60.01044120895676,94.58625263808062 59.761070787440985,94.83710781883565 58.26484825788066,95.3806268236367 53.70493197767064,96.42585354973562 52.95682071312331,96.676707547158 51.42497383756563,96.96937034014263 50.071248691761866,97.47107747435803 48.78877223818563,97.51288637303514 46.793808865593746,97.88916625967249 45.44008371978998,97.88916625967249 42.87513081217185,98.80896000974462 40.80891874758527,98.76715124989278 36.67649461864494,99.43609086814104 36.142129429616034,99.26885607108125 35.82151031610556,98.80896000974462 35.18027208931744,99.31066477712011 34.75277993804775,100.18864656693768 34.61028255405836,100.14683795507881" stroke="#4dd2ff" stroke-linecap="round" stroke-linejoin="round" stroke-width="0.5"><title>2023-03-07 5.6km</title></polyline><polyline fill="none" points="123.3155040689744,106.0 124.01385864592157,106.0 124.1608806620352,105.13728418768733 124.3446581820026,104.8353332161787 126.07216687197797,103.97261490652454 128.3142526182346,103.67066306111519 130.11527231591754,103.06675869054743 131.2914484452922,102.85107833854272 132.24709155014716,102.54912565136328 132.8719351189211,102.5922617635515 133.12922364729457,102.89421441825107 132.76166860666126,100.7805410765286 132.5411355823744,98.19235451475834 132.10006953403354,96.07865647203289 129.78447277960368,87.7100286722125 129.52718425146304,86.2002061517851 128.7920741706621,84.00016890678671 128.90234068292193,83.4393731749733 130.22553882794455,83.09426772073493 130.51958286040463,82.83543843575171 130.66660487651825,82.40405592409661 130.07851681183092,79.25494957505725 129.3801622351166,76.66662452949095 129.26989572308958,75.24303865584079 128.71856316248886,73.94886530804797 128.7920741706621,73.04294148727786 129.08611820288934,72.18015499954345 129.8212282836903,71.05852979872725 130.262294332264,69.93690147058805 131.4384704614058,67.82305496651679 132.79842411074787,63.940450816066004 134.12162225600332,61.86971327892388 135.4448204014916,59.1949948494439 136.17993048205972,58.15961519838311 137.42961761937477,55.8300012392574 138.49552723648958,53.58665652610944 138.89983778097667,52.42183799025952 140.1127694142051,50.78245803961181 140.664101974573,49.013645862054545 141.6565005837474,47.7625301128719 142.90618772082962,45.34657144531957 145.29529548319988,43.23259570644586 147.50062572560273,42.02460458126734 150.91888760123402,39.52232570835622 151.9112862101756,39.09089674302959 153.0507068352308,38.09860836621374 158.1597218962852,34.949155127600534 159.96074159420095,34.47457784382277 161.46771725965664,34.38829100478324 163.56278098979965,34.086286922422005 164.48166859080084,34.12943037657533 165.47406719997525,34.0 165.80486673605628,34.21571727129049 165.91513324831612,35.46687516223756 165.62108921608888,37.235746918217046 165.51082270382904,40.514610572427046 165.62108921608888,45.69170928624226 166.13566627237014,47.80567209998844 167.64264193805866,55.74371898177196 168.30424101068638,58.461601205257466 169.40690613165498,61.352027229062514 171.28143683774397,64.88953529138234 173.81756661622785,69.33294646002469 176.5007184110582,72.39585179506685 176.68449593125843,72.8703843378753 176.6477404271718,73.21549856296042 176.16991887474433,73.60375171212945 174.5526766970288,74.25083946160157 171.75925839017145,75.07048244998441 170.76685978099704,75.54501183785032 168.89232907514088,75.71756784015452 166.8707763531711,76.1489575218875 165.73135572788306,76.27837433631066 163.01144842919894,77.01173549771192 160.14451911463402,78.17648282984737 155.5868366137147,79.16867234179517 155.43981459760107,79.34122678966378 155.47657010168768,79.68633546339697 155.88088064594194,80.50596737724845 155.88088064594194,81.06676719820825 156.32194669451565,81.92953462692094 156.28519119042903,82.2315027898876 156.57923522265628,82.7491619703942 157.0938122794032,83.09426772073493 157.0570567753166,84.2589974424045 157.7554113517981,85.1648960057355 157.79216685611755,85.42372379204608 157.49812282365747,85.55313762283185 155.73385863006115,85.29430991975823 155.21928157354705,85.63941348672961 154.19012746028602,86.80413583980408 152.68315179483034,87.40806462138426 152.0583082260564,88.05513016699115 149.77946697594598,88.22768080339301 147.53738122968934,89.43553318601334 146.72876014071517,89.7374957150314 144.78071842668578,89.91004562977469 143.2002317532897,89.78063320060028 142.06081112800166,89.99632055949769 140.92139050294645,90.55710715136956 139.81872538197786,90.9022062040458 134.23188876826316,91.72181526757777 133.4967786874622,92.02377608060488 133.20273465523496,92.36887387518073 133.16597915114835,92.7571085402451 133.71731171174906,96.38061401504092 134.15837776008993,97.84726171527291 134.4891772964038,99.87467767379712 135.37130939331837,101.94521959742997 135.518331409432,102.50598953475128 135.29779838537797,103.41184701336897 134.41566628823057,103.54125505819684 134.04811124806292,103.67066306111519" stroke="#4dd2ff" stroke-linecap="round" stroke-linejoin="round" stroke-width="0.5"><title>2023-03-03 5.4km</title></polyline><polyline fill="none" points="24.691190547775477,184.04070920631057 24.76223281980492,183.5404631663405 25.117444180650637,183.12359097471926 27.28423348115757,182.28984525066335 30.51665686373599,181.6645347843878 32.61240389221348,181.53947257041 33.39386888570152,181.6645347843878 32.68344616424292,175.2446225041931 31.973023442784324,172.7433292848291 31.369164129486308,171.24254562947317 31.19155844929628,169.44993533802335 30.48113572783768,166.0314462921815 30.019360958598554,164.82246126412065 30.33905118331313,164.32219049791456 31.724375490332022,163.40502575421124 32.61240389221348,163.02982137186336 33.67803797428496,162.8630637524475 35.454094778047875,162.4044799300318 36.697334540542215,161.82082701014588 38.04713771142997,161.44562109885737 39.787673379061744,160.73689783428563 40.28496928396635,160.69520819030004 41.49268791056238,160.98703560463036 42.16758949588984,160.98703560463036 46.039393327897415,159.73634514355217 47.31815422652289,159.56958611140726 48.703478533541784,159.1109984042996 50.83474669791758,158.9859289357846 53.569874175591394,158.4022708836419 54.20925462478772,158.0270616733469 54.386860305210575,157.40171218465548 54.5644659854006,157.19326213162276 57.83241050411016,156.1927003209712 59.537425035843626,156.1927003209712 61.45556638366543,155.81748897809302 62.84089069045149,155.31720662434236 64.1551727252081,155.15044569666497 65.36289135180414,154.69185277674114 66.67717338632792,154.69185277674114 70.33585040201433,154.1081882781582 73.4972315125633,153.31607077131048 74.84703468345106,153.52452290331712 75.23776718019508,153.27438033159706 75.30880945222452,152.89916617210838 75.20224604406394,152.56564217084087 74.24317537015304,151.2732339630602 73.7103583291173,150.0642030405288 71.29492107592523,146.7289258292003 69.12813177565113,142.76824697418488 67.42311724415049,139.30783136555692 66.10883520939387,133.72107127393247 65.75362384854816,132.63706374602043 65.25632794341072,131.59474596439395 64.75903203850612,128.42608274469967 64.8300743107684,127.38375367116532 64.47486294992268,124.08997542681755 64.54590522195213,118.50299660419114 65.0787222632207,115.7928660097532 65.00767999119125,115.37592116420274 64.79455317463726,115.25083762319991 65.04320112732239,114.250167846767 64.75903203850612,114.0 62.734327282290906,114.33355709310854 60.31889002933167,114.37525170968729 58.684917769860476,114.70880848082015 57.441678007366136,115.08405950613087 54.63550825766288,116.45997683246969 51.047873514238745,118.71146740569384 48.667957397177815,120.62939353263937 45.54209742275998,122.6723913885071 43.55291380290873,124.29844323164434 42.66488540102728,125.25739369392977 42.132068359991536,125.42416744577349 41.45716677419841,126.88343472304405 40.53361723641865,128.13423088588752 38.43787020817399,132.76214169204468 37.79848975897767,133.72107127393247 37.30119385384023,135.51384632097324 35.06336228130385,139.39121523639187 34.28189728758298,140.93381362053333 33.358347749570385,143.14347091177478 32.5058404840529,144.56098029678105 31.75989662646316,145.5198807734705 30.978431632742286,147.5210567578324 30.09040323109366,148.89685927145183 29.273417101241648,150.64787361054914 28.740600060205907,151.10647130085272 27.28423348115757,151.43999655393418 25.863388038240373,152.98254712769995 26.076514854561538,152.98254712769995 26.396205079276115,153.27438033159706 27.46183916158043,155.233826169424 28.030177338747308,156.73467162135057 28.491952107753605,159.15268821816426 29.877276414539665,163.78022977453656 30.76530481642112,167.99082783644553 31.724375490332022,171.0341029969859 31.90198117052205,172.4515106944309 33.10969979711808,177.2456454943167 33.57147456612438,179.66353453494958 34.03324933513068,183.45708876373828 34.03324933513068,186.0" stroke="#4dd2ff" stroke-linecap="round" stroke-linejoin="round" stroke-width="0.5"><title>2023-02-10 5.6km</title></polyline><polyline fill="none" points="177.56995581719093,167.9212995680282 177.62297496316023,167.54796224838356 178.2592047129292,167.2990705682896 180.32695139897987,166.7390638983925 181.70544918999076,166.61461789830355 182.3416789395269,166.42794884805335 182.71281296014786,166.11683363100747 182.9248895435594,165.6812720472226 182.6597938144114,162.5078849265119 182.1296023563482,161.13896747824037 181.8114874814637,159.89449426886858 181.8114874814637,158.09000337542966 181.599410898285,157.28109184320783 181.01620029448532,155.5388170214719 180.85714285704307,154.54322906053858 180.85714285704307,154.1076587906573 181.17525773169473,153.4854149808525 182.8718703975901,151.9920271151932 184.0382916049566,151.36978103709407 185.73490427085198,150.74753429164412 185.9469808540307,150.56086013797903 186.0,150.31196117290528 185.84094256255776,149.31636424537282 184.9396170838736,145.3339594550198 184.14432989666238,143.8405506128911 183.50810014735907,141.9115585037507 183.29602356394753,141.47597875300562 182.97790868906304,141.16485015972285 182.55375552270561,141.10262442089152 179.90279823262244,141.84933284518775 178.2592047129292,142.533814723487 176.24447717214935,142.65826588729396 175.44918998517096,142.90716813504696 174.12371134012938,143.40497230988694 172.16200294555165,144.83615693444153 171.31369661260396,145.14728355989791 169.72312223841436,145.20950886484934 166.4889543442987,146.1428876396967 164.68630338739604,146.3917883928516 162.6185567008797,146.32956321450183 159.8085419733543,147.13849001156632 157.79381443280727,147.3873903376516 155.19587628846057,148.00964068580652 154.77172312210314,148.00964068580652 154.3475699557457,147.82296565145953 153.76435935194604,147.20071510318667 153.18114874791354,146.1428876396967 152.33284241519868,144.9606076045893 152.0147275403142,144.40057937888196 151.64359351992607,142.72049145918572 151.43151693651453,141.22707589168567 151.0073637701571,139.36030102754012 149.8939617080614,135.62673328380333 148.83357879216783,130.9597398242331 147.82621502201073,127.66170847852482 145.97054491890594,120.44331031263573 145.75846833572723,119.3232059974689 145.54639175254852,118.94983741192846 145.22827687766403,118.82538116333308 144.4329896904528,118.88760929106502 142.89543446223252,120.00771444686688 141.2518409427721,120.69222208892461 139.87334315129556,121.43895677756518 139.0250368185807,121.75009594741277 136.95729013253003,122.06123495055363 135.84388807043433,122.37237378681311 133.45802650949918,122.68351245636586 130.86008836515248,123.55469984305091 129.16347569948994,123.86583787889685 127.25478645041585,124.3636583883781 124.49779086862691,124.86147847108077 120.83946980861947,125.11038835236104 119.24889543442987,125.35929812683025 118.50662739318796,125.67043519462459 117.0751104564406,126.54161809728248 115.32547864504158,127.97284431208391 114.42415316635743,128.53288839152083 114.05301914550364,128.90625081106555 114.0,129.27961299038725 114.21207658317871,131.02196665061638 114.05301914550364,134.3822053645854 114.4771723120939,138.1157811152516 114.4771723120939,139.73365648073377 114.53019145783037,140.97817292338004 114.84830633271486,142.59604030870833 114.79528718697838,143.96500149642816 115.11340206186287,145.14728355989791 115.16642120759934,146.8895895787282 116.12076583201997,148.63189036690164 116.33284241496585,149.62748846871546 116.27982326946221,151.43200567481108 116.43888070667163,152.61427252617432 116.43888070667163,153.04984391701873 116.22680412349291,153.54763939185068 115.64359351969324,154.04543443972943 115.59057437395677,154.29433180345222 116.33284241496585,155.72548957378604 116.86303387326188,158.46334677934647 116.70397643581964,160.33006019564345 116.70397643581964,164.8723710955819 116.75699558155611,165.8679413375212 117.0751104564406,167.1124017383554 117.12812960217707,167.98352243140107 117.12812960217707,177.19243264524266 117.23416789365001,178.56131223024568 117.34020618535578,179.12130749371136 117.6053019145038,179.43241573974956 118.6656848306302,179.24575081211515 118.71870397636667,179.30797246145085 118.6126656846609,179.49463736906182 118.6656848306302,179.6813022166607 119.1428571427241,180.8012900420581 119.40795287163928,181.11239738756558 119.93814432970248,181.17461883672513 121.1575846830383,180.55240404518554 123.2783505152911,179.8679670043639 124.76288659800775,179.5568589916802 126.35346097196452,179.12130749371136 127.78497790847905,178.8724207765772 130.01178203243762,178.31242527317954 131.70839469786733,178.1257599852397 133.08689248887822,177.69020741333952 135.84388807043433,177.25465451466152 139.0250368185807,176.57021358486963 140.56259204703383,176.38354773656465 142.31222385843284,175.9479938572622 145.70544918999076,174.76577453745995 148.4624447717797,174.14355287561193 150.10603829147294,174.08133067266317 152.91605301923119,173.77021955826785 154.0824742265977,174.01910846313694 158.2179675991647,172.4635510565713 160.3917525773868,172.214661484526 162.19440353452228,171.53021461126627 163.57290132553317,171.34354714222718 167.07216494856402,170.65909924154403 169.0868924886454,170.03687317715958 171.31369661260396,169.85020522773266 175.13107511028647,169.10353282967117 175.82032400602475,169.10353282967117 176.03240058897063,169.35242373566143" stroke="#4dd2ff" stroke-linecap="round" stroke-linejoin="round" stroke-width="0.5"><title>2023-02-04 4.3km</title></polyline><polyline fill="none" points="56.293414905667305,197.16047506825998 58.108260134002194,196.61082835000707 58.635150684276596,196.6795342155383 59.806018573697656,196.95435760426335 60.56708270171657,196.885651768127 62.03066756366752,196.12988708470948 63.96259958134033,195.7176514271414 65.3676410485059,194.8244732595631 66.0701617822051,194.54964895761805 70.1681993950624,194.0 70.57800315646455,194.06870614556829 70.8707201287616,194.34353065368487 70.92926352308132,194.61835504416376 70.75363333988935,195.7176514271414 70.98780691786669,196.61082835000707 71.16343710105866,198.25976709095994 71.51469746790826,199.97740710095968 71.69032765133306,201.28281043004245 71.74887104565278,202.86303195502842 71.5732408624608,204.3058395095868 72.10013141296804,205.7486438160413 72.39284838503227,207.12274013576098 72.45139177981764,207.87849185580853 72.27576159616001,209.3212881195941 72.56847856845707,211.31371571519412 72.39284838503227,214.13058554049348 72.56847856845707,216.3978132365737 72.15867480705492,220.17650824057637 71.86595783475786,222.10019895783626 71.51469746790826,227.6651288793655 71.51469746790826,229.31398772558896 71.80741444043815,233.5735201119678 71.45615407358855,236.73380004236242 71.69032765133306,238.7261424253229 71.69032765133306,241.1306853297865 71.45615407358855,243.05431315890746 71.86595783475786,246.2145463457564 72.68556535732932,249.51216436416144 72.56847856845707,251.22966703021666 72.50993517390452,254.7333581992425 72.62702196300961,256.0386500132154 72.56847856845707,257.41263852478005 72.97828232985921,260.4354028837988 72.80265214620158,261.3971885542269 72.62702196300961,262.15287628327496 72.21721820160747,262.7711655803723 71.63178425678052,263.1146593769663 69.46567866159603,263.6642490682425 67.00685609364882,264.8321255980409 65.3676410485059,265.8626031221356 64.8407504982315,266.0 62.49901471938938,265.65650774975074 58.9864110511262,264.8321255980409 55.06400362146087,265.1756182900863 53.19061499857344,265.1069197663455 52.54663765942678,264.9008241511183 51.14159619202837,264.0077423862531 50.14635848603211,263.8703450811445 45.11162656149827,264.626029894338 42.886977571528405,264.6947284696507 40.13543803151697,265.31301531539066 38.96457014209591,265.79390467196936 38.37913619750179,265.8626031221356 36.85700794123113,265.65650774975074 35.39342307951301,265.79390467196936 33.57857785071246,265.79390467196936 31.23684207163751,264.96952269691974 28.836562898708507,264.3512355200364 28.251128954114392,263.8703450811445 27.841325192712247,263.1833581139799 27.607151614734903,262.35897278174525 27.314434642437845,260.7788979318575 27.138804459013045,258.4431279756827 27.314434642437845,256.794344059017 27.37297803675756,255.00815669674193 27.0802610644605,253.35936394479359 27.021717670140788,252.5349659785279 27.37297803675756,250.54266651591752 29.012193082133308,246.35194743523607 30.183060971321538,242.64210768142948 30.592864732723683,240.1001680465415 31.002668494125828,238.45133694750257 31.17829867755063,236.6650984705775 31.52955904440023,235.15366202482255 31.588102438719943,233.36741435772274 31.822276016697288,230.9628423298127 32.05644959467463,229.52009478304535 31.939362805569544,227.6651288793655 32.407709961757064,224.84831853822106 32.64188353926875,221.68798000446986 32.70042693382129,217.9092939114198 33.16877408954315,214.40540144586703 33.22731748386286,212.00075827760156 33.63712124526501,207.67237783886958 33.57857785071246,205.95475845172768 33.285860878648236,202.45080062851775 33.40294766728766,201.76374782831408 33.63712124526501,201.35151579481317 34.105468400986865,200.93928349605994 35.39342307951301,200.1148181031458 42.535717204911634,198.6720011133002 43.58949830546044,198.3284727796563 45.345800139475614,197.4352982507553 47.16064536804333,195.99247522832593 47.687535918317735,195.7176514271414 50.14635848603211,195.6489454585244 53.19061499857344,195.8550633425475 54.127309310017154,195.6489454585244 54.5371130714193,195.44282750831917 55.70798096084036,195.6489454585244" stroke="#4dd2ff" stroke-linecap="round" stroke-linejoin="round" stroke-width="0.5"><title>2023-01-30 3.5km</title></polyline><polyline fill="none" points="124.40038885432296,266.0 123.92934151552618,265.6598062820267 123.7844038726762,265.4046608019853 123.85687269410118,265.1920394433255 125.451186764054,264.1289309402928 126.46575026307255,264.1289309402928 127.19043847662397,264.00135772835347 127.98759551160038,263.66116229625186 128.85722136800177,263.4910644708434 130.08919133106247,262.8531969753676 131.64727099053562,263.1508686009038 133.53146034595557,262.93824603411485 134.43732061283663,262.9807705565472 134.9083679516334,262.6405742490897 135.99540027207695,262.5130005584797 137.73465198464692,261.9176561268687 139.72754457220435,261.53493423451437 141.28562423144467,260.6844398183457 142.33642214117572,260.3017167361686 143.5321576935239,259.5787943510222 143.96697062184103,259.5787943510222 144.80036206752993,259.918993284693 145.52505028108135,259.83394357861835 148.1701622607652,258.26052072743187 149.3658978131134,257.96284543181537 152.91687005991116,256.6870916344051 153.71402709465474,256.2193142140168 156.21420143172145,256.04921319693676 157.33746816264465,255.6664856421412 157.59110903763212,255.4538590630982 157.59110903763212,255.19870701787295 158.0259219657164,254.85850403562654 158.0621563764289,254.00799530322547 156.75771759194322,251.11625197093235 156.90265523456037,250.09563164328574 156.54031112790108,248.8623785765667 156.61277994909324,247.71417399827624 155.77938850363716,246.05565040544025 155.56198203959502,245.03501705499366 155.01846587937325,243.71669508970808 155.38080998603255,242.39836874237517 155.1996379327029,240.18697277019965 155.4532788072247,239.33643257449148 156.1417326105293,238.9536888913426 158.17085960833356,238.40083625234547 160.81597158825025,238.48589055467164 162.0479415510781,237.7204011771828 163.17120828223415,237.2100741045724 164.94669440574944,236.69974637549603 166.39607083285227,236.52963698646636 168.02661931351759,235.63656149696908 169.18612045538612,235.29634173389059 170.5992624720093,234.36073588044383 171.83123243506998,234.10557026450988 173.24437445146032,233.34007243186352 175.52714232425205,233.42512781958794 176.03442407376133,233.5952385403216 176.2155961273238,233.8929321259202 174.33140677190386,230.1930102619517 173.86035943310708,229.55508921016008 173.46178091550246,228.5769416045805 171.83123243506998,226.36546855862252 169.43976133014075,221.89995654454106 168.89624516968615,219.85856287518982 167.12075904663652,214.6699733301066 166.39607083285227,210.9698721006862 166.17866436904296,208.63070983154466 165.888789083343,208.16287572169676 165.74385144072585,207.52491922778427 165.70761703001335,203.95234389291727 165.49021056573838,202.6764163291955 165.63514820858836,201.5706091192551 165.59891379787587,200.42226759844925 165.7800858512055,199.61417342332425 165.5264449766837,198.80607760124258 165.59891379787587,197.5301334760734 166.32360201142728,194.12759573347284 166.10619554738514,194.0 158.67814135784283,194.59544640459353 157.48240580549464,194.89316927143955 155.52574762888253,195.61620958897402 150.96021188306622,198.80607760124258 148.93108488502912,200.37973636714742 145.52505028108135,202.4637613359955 142.87993830116466,204.675367689837 141.72043715952896,205.99381945448113 141.35809305286966,206.5892478467722 140.95951453526504,207.7375715065573 139.18402841198258,210.07673904468538 138.13323050225154,212.756132177572 137.51724552060477,213.8619081924262 136.79255730705336,215.98839186163968 136.03163468278944,217.13668830125243 134.9808367730584,219.05050831113476 134.36485179141164,219.98615028735367 133.82133563118987,221.0919061403256 132.8792409535963,222.53788991112378 132.22702156123705,224.4516838529962 131.2124580622185,226.28041165680042 130.8138795448467,227.68384820516803 128.63981490395963,231.68148872529855 128.20500197564252,232.06423942715628 126.64692231663503,232.44698975954088 124.87143619311973,233.5952385403216 124.94390501454473,233.85040448451764 125.4874211747665,234.48831862673978 126.24834379903041,235.67908894686843 127.62525140494108,238.9536888913426 128.38617402897216,242.18573505003587 128.3499396184925,243.20637573319254 128.16876756516285,244.05690762936138 128.38617402897216,243.67416850180598 128.53111167182215,244.35459336207714 129.2920342963189,246.09817673813086 129.5094407601282,247.16133357130457 129.5819095815532,249.45774260474718 130.23412897391245,251.32888087525498 131.46609893720597,257.6651699128561 132.58936566812918,260.25919192653964 132.80677213217132,261.8751314902329" stroke="#4dd2ff" stroke-linecap="round" stroke-linejoin="round" stroke-width="0.5"><title>2023-01-06 5.5km</title></polyline></svg>