<?xml version="1.0" encoding="utf-8" ?>
<svg baseProfile="full" height="300mm" version="1.1" viewBox="0,0,200,300" width="200mm" xmlns="http://www.w3.org/2000/svg" xmlns:ev="http://www.w3.org/2001/xml-events" xmlns:xlink="http://www.w3.org/1999/xlink"><defs /><rect fill="#222222" height="300" width="200" x="0" y="0" /><text fill="#FFFFFF" style="font-size:12px; font-family:Arial; font-weight:bold;" x="10" y="20">Track</text><text fill="#FFFFFF" style="font-size:4px; font-family:Arial" x="10" y="280">ATHLETE</text><text fill="#FFFFFF" style="font-size:9px; font-family:Arial" x="10" y="290">Zzz</text><text fill="#FFFFFF" style="font-size:4px; font-family:Arial" x="120" y="280">STATISTICS</text><text fill="#FFFFFF" style="font-size:3px; font-family:Arial" x="120" y="285">Number: 4</text><text fill="#FFFFFF" style="font-size:3px; font-family:Arial" x="120" y="290">Weekly: 1.3</text><text fill="#FFFFFF" style="font-size:3px; font-family:Arial" x="141" y="285">Total: 19.0 km</text><text fill="#FFFFFF" style="font-size:3px; font-family:Arial" x="141" y="290">Avg: 4.7 km</text><text fill="#FFFFFF" style="font-size:3px; font-family:Arial" x="167" y="285">Min: 3.5 km</text><text fill="#FFFFFF" style="font-size:3px; font-family:Arial" x="167" y="290">Max: 5.6 km</text><polyline fill="none" points="26.52758936630562,113.29579785710666 26.607511922484264,112.73302106212941 27.007124703144655,112.26403984654462 29.44476266624406,111.32607590698171 33.0812389717903,110.62260163243627 35.43895437894389,110.48190664171125 36.318102496443316,110.62260163243627 35.518876934889704,103.40020031720633 34.71965137333609,100.58624544541817 34.04030964593403,98.8978638331464 33.840503255603835,96.88117725527263 33.04127769381739,93.03537707868963 32.52178107853979,91.67526892211754 32.8814325814601,91.11246431013569 34.43992242659442,90.08065397347673 35.43895437894389,89.65854904334992 36.63779272115789,89.47094672149979 38.63585662539117,88.95503992127487 40.0345013581682,88.29843038640684 41.55302992532961,87.87632373621454 43.51113255135715,87.07901006357861 44.07059044460766,87.03210921405116 45.42927389941178,87.3604150551837 46.18853818299249,87.3604150551837 50.544317493913695,85.95338828646345 51.98292350489646,85.76578437531134 53.54141335026361,85.24987320482614 55.93909003515728,85.10917005274678 59.01610844745301,84.45255474408623 59.735411452827975,84.03044438251527 59.935217843391,83.32692620772286 60.1350242337212,83.09241989805014 63.81146181724034,81.96678786107805 65.72960316529498,81.96678786107805 67.88751218165271,81.54467510033282 69.44600202701986,80.98185745236697 70.92456931597553,80.7942514087481 72.28325277077965,80.27833437384106 73.76182005973533,80.27833437384106 77.87783170235343,79.62171181291342 81.43438545172103,78.73057961769518 82.95291401888244,78.96508826620993 83.39248807774857,78.68367787302122 83.47241063392721,78.26156194359646 83.35252679977566,77.88634744219598 82.27357229148038,76.43238820845727 81.67415312025696,75.072228420584 78.95678621064872,71.32004155783216 76.51914824754931,66.86427784594707 74.60100689972751,62.97131028625881 73.122439610539,56.68620518318494 72.72282682964578,55.466696714254795 72.16336893639527,54.29408920992864 71.6039110433776,50.72934308779077 71.68383359955624,49.556722880050074 71.28422081866302,45.85122235518065 71.36414337484166,39.56587117968593 71.96356254606508,36.51697426097235 71.88363999011926,36.04791130972444 71.64387232158333,35.90719232609263 71.923601268325,34.781438827572856 71.6039110433776,34.5 69.32611819263548,34.87525172973983 66.60875128302723,34.922158173372736 64.77053249115124,35.297409540915396 63.371887758374214,35.7195669443754 60.21494678989984,37.26747393651749 56.17885770369321,39.80040083138738 53.50145207205787,41.95806772421929 49.984859600663185,44.25644031204865 47.74702802835964,46.085748635581695 46.74799607601017,47.1645679056528 46.14857690501958,47.35218837647699 45.389312621206045,48.99386406340636 44.3503193911165,50.401009746594355 41.99260398419574,55.60740940354299 41.2733009790536,56.68620518318494 40.71384308557026,58.70307711107307 38.19628256652504,63.065117140940856 37.317134448559955,64.80054032310727 36.27814121847041,67.28640477571753 35.31907054455951,68.88110283386777 34.47988370480016,69.95986587012885 33.6007355870679,72.21118885255419 32.601703634951264,73.75896668038331 31.68259423901327,75.72885781186051 31.083175067789853,76.24478021342657 29.44476266624406,76.6199961231614 27.846311543136835,78.35536551865516 28.086079211439937,78.35536551865516 28.445730714360252,78.68367787302122 29.644569056807086,80.8880544406129 30.28394950600341,82.5765055740194 30.803446121281013,85.29677424542024 32.36193596641533,90.50275849635364 33.36096791853197,95.23968131598667 34.43992242659442,98.6633658716164 34.63972881692462,100.25794953122386 35.99841227196157,105.65135118109174 36.51790888700634,108.37147635180736 37.037405502051115,112.63922485918738 37.037405502051115,115.5" stroke="#4dd2ff" stroke-linecap="round" stroke-linejoin="round" stroke-width="0.5"><title>2023-02-10 5.6km</title></polyline><polyline fill="none" points="176.01620029448532,95.16146201401716 176.07584683364257,94.74145752942422 176.79160530213267,94.4614543892676 179.11782032391056,93.83144688571338 180.6686303387396,93.69144513556967 181.38438880699687,93.4814424540964 181.80191458016634,93.13143783481792 182.04050073656254,92.64143105311086 181.7422680412419,89.07137054228224 181.1458026508335,87.53133841301315 180.78792341658846,86.13130605244078 180.78792341658846,84.10125379735837 180.54933726065792,83.19122832361609 179.89322533132508,81.23116914916318 179.71428571431898,80.11113269306952 179.71428571431898,79.62111613946036 180.0721649483312,78.92109185346635 181.98085419717245,77.2410305045778 183.29307805583812,76.54100366675993 185.20176730467938,75.84097607806325 185.44035346084274,75.63096765521914 185.5,75.35095631948207 185.3210603829939,74.23090977605898 184.307069219416,69.75070438685361 183.4123711339198,68.07061943953158 182.69661266566254,65.90050331671955 182.45802650949918,65.41047609708039 182.10014727525413,65.06045642972458 181.62297496316023,64.9904524734593 178.64064801181667,65.83049945085077 176.79160530213267,66.60054156387923 174.52503681881353,66.74054912320571 173.63033873331733,67.02056415192783 172.13917525764555,67.58059384860098 169.9322533137165,69.190676551254 168.97790868906304,69.54069400485605 167.18851251830347,69.61069747293368 163.55007363739423,70.66074859461514 161.52209131070413,70.94076194195077 159.19587628846057,70.87075861630728 156.0346097201109,71.78080126299756 153.7680412370246,72.06081412988715 150.84536082460545,72.76084577152506 150.36818851251155,72.76084577152506 149.89101620041765,72.55083635787014 149.23490427108482,71.85080449102679 148.57879234128632,70.66074859461514 147.62444771709852,69.33068355516298 147.26656848285347,68.70065180124948 146.84904270991683,66.81055289157666 146.61045655375347,65.13046037813183 146.13328424142674,63.03033865598263 144.8807069216855,58.83007494424237 143.6877761411015,53.579707302269526 142.5544918999076,49.8694220383768 140.46686303359456,41.74872410175158 140.22827687766403,40.48860674712341 139.98969072150066,40.068567088397685 139.63181148725562,39.92855380871333 138.73711340175942,39.99856045242632 137.0073637701571,41.25867875269614 135.1583210604731,42.02874984999653 133.60751104541123,42.86882637476083 132.6531664209906,43.21885794081027 130.3269513992127,43.56888931937283 129.07437407923862,43.91892051015748 126.39027982321568,44.26895151339704 123.46759941079654,45.24903732340317 121.55891016195528,45.599067613715306 119.41163475695066,46.15911568689626 116.31001472729258,46.71916327998042 112.19440353475511,46.999186896428 110.4050073637627,47.27921039267676 109.56995581742376,47.62923959392356 107.9594992636703,48.60932035947917 105.99116347567178,50.219449851079844 104.9771723120939,50.84949944046093 104.5596465386916,51.269532162405085 104.5,51.689564614149276 104.73858615616336,53.64971248188522 104.5596465386916,57.42998103512218 105.03681885101832,61.63025375461439 105.03681885101832,63.45036354084732 105.09646539017558,64.85044453875162 105.4543446241878,66.67054534726776 105.39469808526337,68.21062668343075 105.75257731950842,69.54069400485605 105.81222385843284,71.50078827602556 106.88586156116799,73.4608766627498 107.12444771686569,74.58092452725396 107.0648011781741,76.61100638413336 107.2437407951802,77.94105659192428 107.2437407951802,78.43107440666063 107.00515463901684,78.99109431583202 106.34904270991683,79.55111374473199 106.28939617075957,79.83112327888375 107.12444771686569,81.44117577048019 107.72091310750693,84.52126512676477 107.54197349050082,86.62131772009889 107.54197349050082,91.7314174825442 107.60162002942525,92.85143400472589 107.9594992636703,94.25145195558434 108.01914580259472,95.23146273533348 108.01914580259472,105.591486725898 108.13843888044357,107.13147625897545 108.25773195852526,107.761470930418 108.55596465384588,108.1114677072037 109.74889543442987,107.90146966360044 109.8085419733543,107.971469019074 109.68924889527261,108.1814670402091 109.74889543442987,108.3914649937069 110.2857142854482,109.65145129727898 110.58394698076881,110.00144706096034 111.1804123709444,110.07144619128667 112.5522827685345,109.37145455082646 114.93814432970248,108.60146287985845 116.60824742284603,108.2514663655893 118.39764359337278,107.761470930418 120.00810014712624,107.48147337359842 122.51325478637591,106.85147843230516 124.42194403521717,106.64147998334374 125.9727540500462,106.15148334001424 129.07437407923862,105.66148632898694 132.6531664209906,104.89149028295651 134.38291605282575,104.68149120360613 136.35125184059143,104.19149308942724 140.1686303387396,102.86149635456968 143.27025036816485,102.16149698506342 145.11929307808168,102.09149700670969 148.2805596466642,101.74149700300768 149.59278350509703,102.02149702102179 154.2452135491185,100.27149493858451 156.69072164944373,99.99149417004082 158.71870397636667,99.22149143763818 160.2695139911957,99.01149053499103 164.20618556719273,98.24148664675886 166.47275404981337,97.54148232430452 168.97790868906304,97.33148088119924 173.27245949907228,96.4914744333364 174.04786450671963,96.4914744333364 174.28645066241734,96.77147670259001" stroke="#4dd2ff" stroke-linecap="round" stroke-linejoin="round" stroke-width="0.5"><title>2023-02-04 4.3km</title></polyline><polyline fill="none" points="62.08009176887572,188.05553445179248 64.12179265078157,187.43718189373612 64.71454451978207,187.5144759924733 66.03177089546807,187.82365230476717 66.88796803960577,187.74635823915014 68.5345010093879,186.89612297032727 70.70792452897877,186.43235785554862 72.28859617980197,185.4275324170012 73.07893200521357,185.11835507734213 77.68922431953251,184.5 78.15025355131365,184.57729441381525 78.47956014494412,184.88647198543185 78.54542146367021,185.19564942468423 78.34783750772476,186.43235785554862 78.61128278262913,187.43718189373612 78.80886673880741,189.29223797732266 79.20403465162963,191.2245829885942 79.4016186078079,192.69316173379775 79.467479926534,194.4709109493997 79.26989597058855,196.0940694482415 79.86264783958904,197.71722429303918 80.19195443345234,199.2630826527602 80.25781575241126,200.11330333782826 80.06023179576732,201.7364491345361 80.38953838963062,203.97793017956428 80.19195443345234,207.14690873300424 80.38953838963062,209.69753989111632 79.9285091580823,213.9485717706266 79.59920256421901,216.11272382753668 79.20403465162963,222.37326998927165 79.20403465162963,224.22823619126575 79.53334124549292,229.02021012594923 79.13817333290353,232.575525047665 79.4016186078079,234.81691022851737 79.4016186078079,237.52202099602437 79.13817333290353,239.68610230379272 79.59920256421901,243.2413646389614 80.5212610270828,246.95118490967434 80.38953838963062,248.88337540900102 80.32367707067169,252.82502797414782 80.45539970835671,254.29348126490368 80.38953838963062,255.83921834040666 80.85056762117893,259.2398282442591 80.65298366453499,260.3218371235416 80.45539970835671,261.17198581865523 79.99437047704123,261.8675612778752 79.33575728884898,262.2539917990798 76.89888849435374,262.87228020175826 74.13271310552955,264.18614129780326 72.28859617980197,265.3454285123735 71.69584431056865,265.5 69.06139155942947,265.11357121844776 65.10971243260428,264.18614129780326 60.69700407446362,264.5725705763325 58.589441873598844,264.495284737146 57.864967367146164,264.2634271699935 56.28429571609013,263.258710184542 55.16465329681523,263.1041382162948 49.50057988171466,263.9542836311157 46.997849768260494,264.03156952833524 43.902367785573006,264.72714222985087 42.585141409887,265.26814275595825 41.926528222393245,265.3454285123735 40.214133934117854,265.11357121844776 38.567600964801386,265.26814275595825 36.52590008196421,265.26814275595825 33.89144733082503,264.3407130340347 31.19113326119259,263.64513996004825 30.532520073466003,263.1041382162948 30.071490841917694,262.3312778782565 29.808045566547662,261.4038443794707 29.4787389729172,259.6262601733324 29.28115501650609,256.9985189726576 29.4787389729172,255.14363706641598 29.54460029164329,253.13417628384195 29.215293697547168,251.2792844378855 29.149432379053906,250.35183672589483 29.54460029164329,248.11049983045086 31.3887172176037,243.3959408646915 32.70594359282404,239.2223711416009 33.16697282437235,236.3626890523592 33.62800205615349,234.50775406591129 33.82558601233177,232.49823577940697 34.220753925153986,230.797869777889 34.28661524364725,228.78834115242353 34.55006051901728,226.08319762104657 34.81350579415448,224.46010663092602 34.681783156236634,222.37326998927165 35.2086737069767,219.20435835549142 35.47211898188107,215.64897750498494 35.53798030083999,211.39795565034728 36.06487085088156,207.45607662654947 36.130732169607654,204.7508530623163 36.59176140092313,199.88142506871372 36.52590008196421,197.94910325820092 36.19659348856658,194.00715070706792 36.32831612601876,193.23421630688244 36.59176140092313,192.7704552692012 37.118651951197535,192.30669393308926 38.567600964801386,191.37917036603903 46.60268185567111,189.7560012524482 47.7881855936721,189.36953187710606 49.76402515708469,188.3647105320706 51.80572603922337,186.74153463187395 52.39847790822387,186.43235785554862 55.16465329681523,186.35506364086177 58.589441873598844,186.58694626041688 59.64322297391482,186.35506364086177 60.104252205463126,186.12318094685907 61.42147858114913,186.35506364086177" stroke="#4dd2ff" stroke-linecap="round" stroke-linejoin="round" stroke-width="0.5"><title>2023-01-30 3.5km</title></polyline><polyline fill="none" points="116.20043746125884,265.5 115.67050920496695,265.11728206728003 115.50745435687713,264.830243402248 115.58898178092204,264.5910443737521 117.38258510967717,263.3950473078294 118.52396904607303,263.3950473078294 119.33924328628927,263.2515274444013 120.23604495055042,262.8688075832906 121.21437403908931,262.6774475296843 122.6003402476199,261.9598465972813 124.35317986435257,262.2947271760204 126.47289288928732,262.0555267883756 127.491985689383,262.10336687610834 128.0219139456749,261.72064603021136 129.24482530611567,261.5771256283042 131.2014834829606,260.9073631427309 133.4434876437299,260.47680101383594 135.19632726046257,259.51999479564256 136.3784749088809,259.0894313282042 137.72367740538903,258.2761436449073 138.21284194965847,258.2761436449073 139.15040732594207,258.6588674452796 139.9656815661583,258.5631865259493 142.94143254333176,256.7930858183536 144.2866350398399,256.45820111079956 148.28147881734185,255.02297808870208 149.178280481603,254.49672849077615 151.99097661068663,254.30536484657205 153.25465168314986,253.87479634743067 153.53999766753986,253.63559144598548 153.53999766753986,253.3485453950998 154.02916221157648,252.9658170400653 154.06992592359893,252.0089947161323 152.60243229102343,248.75578346729162 152.76548713888042,247.60758559868555 152.3578500188887,246.2201758986339 152.43937744293362,244.9284457480535 151.50181206665002,243.06260670610936 151.2572297945153,241.91439418686787 150.64577411441132,240.43128197590704 151.05341123440303,238.9481648351648 150.84959267429076,236.46034436646733 151.1349386582151,235.5034866463102 151.90944918687455,235.07290000276407 154.19221705943346,234.4509407838923 157.16796803683974,234.54662687401287 158.5539342451375,233.68545132433064 159.81760931760073,233.1113333676476 161.81503120670095,232.53721467242576 163.4455796869006,232.34584160978557 165.279946727911,231.3411316840793 166.5843855123967,230.95838445064146 168.17417028103955,229.9058278654702 169.56013648957014,229.61876654758817 171.14992125798017,228.75758148584282 173.71803511492908,228.8532687970437 174.28872708324343,229.0446433578618 174.4925456433557,229.3795486416784 172.37283261865377,225.21713654469931 171.84290436212905,224.4994753614301 171.3945035301149,223.39905930514215 169.56013648957014,220.91115212842124 166.86973149632104,215.8874511126196 166.25827581598423,213.590883234574 164.26085392734967,207.7537199963699 163.4455796869006,203.59110611327924 163.20099741523154,200.95954856046592 162.87488771881908,200.43323518690886 162.7118328709621,199.7155341312464 162.6710691587068,195.69638687954284 162.4264868865721,194.26096837036312 162.58954173489474,193.01693525913288 162.54877802263945,191.72505104824086 162.75259658275172,190.8159451012616 162.46725059882738,189.9068373014161 162.54877802263945,188.47140016057529 163.36405226308852,184.64354520017514 163.1194699909538,184.5 154.7629090277478,185.16987720516045 153.4177065314725,185.5048154303804 151.21646608249284,186.31823578759213 146.08023836859502,189.9068373014161 143.79747049557045,191.67720341304084 139.9656815661583,194.02173150298768 136.98993058898486,196.50978865104844 135.68549180449918,197.99304688628763 135.27785468450747,198.66290382761508 134.82945385226049,199.9547679448733 132.8320319633931,202.58633142529288 131.64988431497477,205.60064869976486 130.9569012108259,206.84464671646128 130.14162697037682,209.23694084433373 129.28558901837096,210.5287743389199 128.1034413697198,212.68182185001206 127.4104582653381,213.73441907326924 126.79900258523412,214.9783944078663 125.73914607288316,216.60512615001062 125.005399256479,218.758144334628 123.86401532008313,220.81546311388956 123.41561448783614,222.39432923082495 120.96979176695459,226.89167481596814 120.48062722268514,227.322269355529 118.7277876061853,227.75286347948713 116.73036571731791,229.0446433578618 116.81189314136282,229.33170504510053 117.42334882169962,230.0493584550568 118.27938677393831,231.38897506523062 119.82840783055872,235.07290000276407 120.68444578279741,238.70895193127217 120.64368207100779,239.8571726998489 120.43986351089552,240.81402108303155 120.68444578279741,240.38343956452445 120.84750063088723,241.14891753232223 121.70353858335875,243.11044883038267 121.94812085526064,244.3065002677031 122.02964827930555,246.88996043032967 122.76339509570971,248.9949909846473 124.1493613042403,256.1233161519631 125.41303637670353,259.04159091736074 125.65761864883825,260.8595229265047" stroke="#4dd2ff" stroke-linecap="round" stroke-linejoin="round" stroke-width="0.5"><title>2023-01-06 5.5km</title></polyline></svg>