<?xml version="1.0" encoding="utf-8" ?>
<svg baseProfile="full" height="300mm" version="1.1" viewBox="0,0,200,300" width="200mm" xmlns="http://www.w3.org/2000/svg" xmlns:ev="http://www.w3.org/2001/xml-events" xmlns:xlink="http://www.w3.org/1999/xlink"><defs /><rect fill="#222222" height="300" width="200" x="0" y="0" /><text fill="#FFFFFF" style="font-size:12px; font-family:Arial; font-weight:bold;" x="10" y="20">Track</text><text fill="#FFFFFF" style="font-size:4px; font-family:Arial" x="10" y="280">ATHLETE</text><text fill="#FFFFFF" style="font-size:9px; font-family:Arial" x="10" y="290">Zzz</text><text fill="#FFFFFF" style="font-size:4px; font-family:Arial" x="120" y="280">STATISTICS</text><text fill="#FFFFFF" style="font-size:3px; font-family:Arial" x="120" y="285">Number: 5</text><text fill="#FFFFFF" style="font-size:3px; font-family:Arial" x="120" y="290">Weekly: 1.2</text><text fill="#FFFFFF" style="font-size:3px; font-family:Arial" x="141" y="285">Total: 24.4 km</text><text fill="#FFFFFF" style="font-size:3px; font-family:Arial" x="141" y="290">Avg: 4.9 km</text><text fill="#FFFFFF" style="font-size:3px; font-family:Arial" x="167" y="285">Min: 3.5 km</text><text fill="#FFFFFF" style="font-size:3px; font-family:Arial" x="167" y="290">Max: 5.6 km</text><polyline fill="none" points="23.315504068974406,106.0 24.013858645921573,106.0 24.160880662035197,105.13728418768733 24.344658182002604,104.8353332161787 26.07216687197797,103.97261490652454 28.314252618234605,103.67066306111519 30.115272315917537,103.06675869054743 31.29144844529219,102.85107833854272 32.24709155014716,102.54912565136328 32.8719351189211,102.5922617635515 33.129223647294566,102.89421441825107 32.76166860666126,100.7805410765286 32.54113558237441,98.19235451475834 32.10006953403354,96.07865647203289 29.784472779603675,87.7100286722125 29.52718425146304,86.2002061517851 28.79207417066209,84.00016890678671 28.90234068292193,83.4393731749733 30.225538827944547,83.09426772073493 30.519582860404626,82.83543843575171 30.66660487651825,82.40405592409661 30.078516811830923,79.25494957505725 29.380162235116586,76.66662452949095 29.269895723089576,75.24303865584079 28.718563162488863,73.94886530804797 28.79207417066209,73.04294148727786 29.086118202889338,72.18015499954345 29.82122828369029,71.05852979872725 30.26229433226399,69.93690147058805 31.438470461405814,67.82305496651679 32.798424110747874,63.940450816066004 34.12162225600332,61.86971327892388 35.4448204014916,59.1949948494439 36.17993048205972,58.15961519838311 37.42961761937477,55.8300012392574 38.49552723648958,53.58665652610944 38.89983778097667,52.42183799025952 40.112769414205104,50.78245803961181 40.664101974572986,49.013645862054545 41.6565005837474,47.7625301128719 42.90618772082962,45.34657144531957 45.29529548319988,43.23259570644586 47.50062572560273,42.02460458126734 50.91888760123402,39.52232570835622 51.911286210175604,39.09089674302959 53.05070683523081,38.09860836621374 58.15972189628519,34.949155127600534 59.960741594200954,34.47457784382277 61.46771725965664,34.38829100478324 63.56278098979965,34.086286922422005 64.48166859080084,34.12943037657533 65.47406719997525,34.0 65.80486673605628,34.21571727129049 65.91513324831612,35.46687516223756 65.62108921608888,37.235746918217046 65.51082270382904,40.514610572427046 65.62108921608888,45.69170928624226 66.13566627237014,47.80567209998844 67.64264193805866,55.74371898177196 68.30424101068638,58.461601205257466 69.40690613165498,61.352027229062514 71.28143683774397,64.88953529138234 73.81756661622785,69.33294646002469 76.50071841105819,72.39585179506685 76.68449593125843,72.8703843378753 76.64774042717181,73.21549856296042 76.16991887474433,73.60375171212945 74.5526766970288,74.25083946160157 71.75925839017145,75.07048244998441 70.76685978099704,75.54501183785032 68.89232907514088,75.71756784015452 66.8707763531711,76.1489575218875 65.73135572788306,76.27837433631066 63.011448429198936,77.01173549771192 60.14451911463402,78.17648282984737 55.586836613714695,79.16867234179517 55.43981459760107,79.34122678966378 55.476570101687685,79.68633546339697 55.88088064594194,80.50596737724845 55.88088064594194,81.06676719820825 56.321946694515646,81.92953462692094 56.28519119042903,82.2315027898876 56.57923522265628,82.7491619703942 57.09381227940321,83.09426772073493 57.057056775316596,84.2589974424045 57.7554113517981,85.1648960057355 57.79216685611755,85.42372379204608 57.49812282365747,85.55313762283185 55.73385863006115,85.29430991975823 55.21928157354705,85.63941348672961 54.19012746028602,86.80413583980408 52.68315179483034,87.40806462138426 52.0583082260564,88.05513016699115 49.77946697594598,88.22768080339301 47.537381229689345,89.43553318601334 46.72876014071517,89.7374957150314 44.78071842668578,89.91004562977469 43.2002317532897,89.78063320060028 42.06081112800166,89.99632055949769 40.92139050294645,90.55710715136956 39.818725381977856,90.9022062040458 34.23188876826316,91.72181526757777 33.49677868746221,92.02377608060488 33.20273465523496,92.36887387518073 33.16597915114835,92.7571085402451 33.71731171174906,96.38061401504092 34.158377760089934,97.84726171527291 34.489177296403795,99.87467767379712 35.37130939331837,101.94521959742997 35.518331409431994,102.50598953475128 35.29779838537797,103.41184701336897 34.41566628823057,103.54125505819684 34.04811124806292,103.67066306111519" stroke="#4dd2ff" stroke-linecap="round" stroke-linejoin="round" stroke-width="0.5"><title>2023-03-03 5.4km</title></polyline><polyline fill="none" points="124.69119054777548,104.04070920631057 124.76223281980492,103.54046316634049 125.11744418065064,103.12359097471926 127.28423348115757,102.28984525066335 130.516656863736,101.6645347843878 132.61240389221348,101.53947257041 133.39386888570152,101.6645347843878 132.68344616424292,95.2446225041931 131.97302344278432,92.74332928482909 131.3691641294863,91.24254562947317 131.19155844929628,89.44993533802335 130.48113572783768,86.0314462921815 130.01936095859855,84.82246126412065 130.33905118331313,84.32219049791456 131.72437549033202,83.40502575421124 132.61240389221348,83.02982137186336 133.67803797428496,82.86306375244749 135.45409477804787,82.40447993003181 136.69733454054222,81.82082701014588 138.04713771142997,81.44562109885737 139.78767337906174,80.73689783428563 140.28496928396635,80.69520819030004 141.49268791056238,80.98703560463036 142.16758949588984,80.98703560463036 146.03939332789741,79.73634514355217 147.3181542265229,79.56958611140726 148.70347853354178,79.11099840429961 150.83474669791758,78.98592893578461 153.5698741755914,78.4022708836419 154.20925462478772,78.0270616733469 154.38686030521058,77.40171218465548 154.5644659854006,77.19326213162276 157.83241050411016,76.1927003209712 159.53742503584363,76.1927003209712 161.45556638366543,75.81748897809302 162.8408906904515,75.31720662434236 164.1551727252081,75.15044569666497 165.36289135180414,74.69185277674114 166.67717338632792,74.69185277674114 170.33585040201433,74.1081882781582 173.4972315125633,73.31607077131048 174.84703468345106,73.52452290331712 175.23776718019508,73.27438033159706 175.30880945222452,72.89916617210838 175.20224604406394,72.56564217084087 174.24317537015304,71.27323396306019 173.7103583291173,70.06420304052881 171.29492107592523,66.7289258292003 169.12813177565113,62.768246974184876 167.4231172441505,59.30783136555692 166.10883520939387,53.721071273932466 165.75362384854816,52.63706374602043 165.25632794341072,51.59474596439395 164.75903203850612,48.42608274469967 164.8300743107684,47.38375367116532 164.47486294992268,44.089975426817546 164.54590522195213,38.50299660419114 165.0787222632207,35.7928660097532 165.00767999119125,35.37592116420274 164.79455317463726,35.250837623199914 165.0432011273224,34.250167846767 164.75903203850612,34.0 162.7343272822909,34.33355709310854 160.31889002933167,34.37525170968729 158.68491776986048,34.70880848082015 157.44167800736614,35.08405950613087 154.63550825766288,36.45997683246969 151.04787351423874,38.71146740569384 148.66795739717782,40.62939353263937 145.54209742275998,42.672391388507094 143.55291380290873,44.29844323164434 142.66488540102728,45.25739369392977 142.13206835999154,45.42416744577349 141.4571667741984,46.88343472304405 140.53361723641865,48.13423088588752 138.437870208174,52.76214169204468 137.79848975897767,53.721071273932466 137.30119385384023,55.513846320973244 135.06336228130385,59.39121523639187 134.28189728758298,60.93381362053333 133.35834774957038,63.143470911774784 132.5058404840529,64.56098029678105 131.75989662646316,65.5198807734705 130.97843163274229,67.52105675783241 130.09040323109366,68.89685927145183 129.27341710124165,70.64787361054914 128.7406000602059,71.10647130085272 127.28423348115757,71.43999655393418 125.86338803824037,72.98254712769995 126.07651485456154,72.98254712769995 126.39620507927611,73.27438033159706 127.46183916158043,75.23382616942399 128.0301773387473,76.73467162135057 128.4919521077536,79.15268821816426 129.87727641453966,83.78022977453656 130.76530481642112,87.99082783644553 131.72437549033202,91.0341029969859 131.90198117052205,92.45151069443091 133.10969979711808,97.2456454943167 133.57147456612438,99.66353453494958 134.03324933513068,103.45708876373828 134.03324933513068,106.0" stroke="#4dd2ff" stroke-linecap="round" stroke-linejoin="round" stroke-width="0.5"><title>2023-02-10 5.6km</title></polyline><polyline fill="none" points="77.56995581719093,167.9212995680282 77.62297496316023,167.54796224838356 78.2592047129292,167.2990705682896 80.32695139897987,166.7390638983925 81.70544918999076,166.61461789830355 82.3416789395269,166.42794884805335 82.71281296014786,166.11683363100747 82.9248895435594,165.6812720472226 82.65979381441139,162.5078849265119 82.12960235634819,161.13896747824037 81.8114874814637,159.89449426886858 81.8114874814637,158.09000337542966 81.59941089828499,157.28109184320783 81.01620029448532,155.5388170214719 80.85714285704307,154.54322906053858 80.85714285704307,154.1076587906573 81.17525773169473,153.4854149808525 82.8718703975901,151.9920271151932 84.03829160495661,151.36978103709407 85.73490427085198,150.74753429164412 85.9469808540307,150.56086013797903 86.0,150.31196117290528 85.84094256255776,149.31636424537282 84.9396170838736,145.3339594550198 84.14432989666238,143.8405506128911 83.50810014735907,141.9115585037507 83.29602356394753,141.47597875300562 82.97790868906304,141.16485015972285 82.55375552270561,141.10262442089152 79.90279823262244,141.84933284518775 78.2592047129292,142.533814723487 76.24447717214935,142.65826588729396 75.44918998517096,142.90716813504696 74.12371134012938,143.40497230988694 72.16200294555165,144.83615693444153 71.31369661260396,145.14728355989791 69.72312223841436,145.20950886484934 66.48895434429869,146.1428876396967 64.68630338739604,146.3917883928516 62.61855670087971,146.32956321450183 59.808541973354295,147.13849001156632 57.79381443280727,147.3873903376516 55.19587628846057,148.00964068580652 54.77172312210314,148.00964068580652 54.34756995574571,147.82296565145953 53.76435935194604,147.20071510318667 53.18114874791354,146.1428876396967 52.332842415198684,144.9606076045893 52.0147275403142,144.40057937888196 51.64359351992607,142.72049145918572 51.43151693651453,141.22707589168567 51.0073637701571,139.36030102754012 49.8939617080614,135.62673328380333 48.83357879216783,130.9597398242331 47.82621502201073,127.66170847852482 45.970544918905944,120.44331031263573 45.75846833572723,119.3232059974689 45.546391752548516,118.94983741192846 45.22827687766403,118.82538116333308 44.432989690452814,118.88760929106502 42.895434462232515,120.00771444686688 41.251840942772105,120.69222208892461 39.87334315129556,121.43895677756518 39.0250368185807,121.75009594741277 36.957290132530034,122.06123495055363 35.84388807043433,122.37237378681311 33.45802650949918,122.68351245636586 30.860088365152478,123.55469984305091 29.163475699489936,123.86583787889685 27.25478645041585,124.3636583883781 24.497790868626907,124.86147847108077 20.83946980861947,125.11038835236104 19.24889543442987,125.35929812683025 18.506627393187955,125.67043519462459 17.075110456440598,126.54161809728248 15.325478645041585,127.97284431208391 14.424153166357428,128.53288839152083 14.05301914550364,128.90625081106555 14.0,129.27961299038725 14.212076583178714,131.02196665061638 14.05301914550364,134.3822053645854 14.477172312093899,138.1157811152516 14.477172312093899,139.73365648073377 14.53019145783037,140.97817292338004 14.848306332714856,142.59604030870833 14.795287186978385,143.96500149642816 15.113402061862871,145.14728355989791 15.166421207599342,146.8895895787282 16.12076583201997,148.63189036690164 16.332842414965853,149.62748846871546 16.279823269462213,151.43200567481108 16.438880706671625,152.61427252617432 16.438880706671625,153.04984391701873 16.22680412349291,153.54763939185068 15.64359351969324,154.04543443972943 15.59057437395677,154.29433180345222 16.332842414965853,155.72548957378604 16.863033873261884,158.46334677934647 16.70397643581964,160.33006019564345 16.70397643581964,164.8723710955819 16.75699558155611,165.8679413375212 17.075110456440598,167.1124017383554 17.12812960217707,167.98352243140107 17.12812960217707,177.19243264524266 17.23416789365001,178.56131223024568 17.340206185355783,179.12130749371136 17.605301914503798,179.43241573974956 18.665684830630198,179.24575081211515 18.71870397636667,179.30797246145085 18.612665684660897,179.49463736906182 18.665684830630198,179.6813022166607 19.142857142724097,180.8012900420581 19.40795287163928,181.11239738756558 19.93814432970248,181.17461883672513 21.157584683038294,180.55240404518554 23.278350515291095,179.8679670043639 24.762886598007753,179.5568589916802 26.353460971964523,179.12130749371136 27.78497790847905,178.8724207765772 30.011782032437623,178.31242527317954 31.708394697867334,178.1257599852397 33.08689248887822,177.69020741333952 35.84388807043433,177.25465451466152 39.0250368185807,176.57021358486963 40.56259204703383,176.38354773656465 42.312223858432844,175.9479938572622 45.70544918999076,174.76577453745995 48.4624447717797,174.14355287561193 50.10603829147294,174.08133067266317 52.916053019231185,173.77021955826785 54.0824742265977,174.01910846313694 58.217967599164695,172.4635510565713 60.3917525773868,172.214661484526 62.19440353452228,171.53021461126627 63.57290132553317,171.34354714222718 67.07216494856402,170.65909924154403 69.08689248864539,170.03687317715958 71.31369661260396,169.85020522773266 75.13107511028647,169.10353282967117 75.82032400602475,169.10353282967117 76.03240058897063,169.35242373566143" stroke="#4dd2ff" stroke-linecap="round" stroke-linejoin="round" stroke-width="0.5"><title>2023-02-04 4.3km</title></polyline><polyline fill="none" points="156.2934149056673,117.16047506825998 158.1082601340022,116.61082835000707 158.6351506842766,116.6795342155383 159.80601857369766,116.95435760426335 160.56708270171657,116.88565176812699 162.03066756366752,116.12988708470948 163.96259958134033,115.71765142714139 165.3676410485059,114.82447325956309 166.0701617822051,114.54964895761805 170.1681993950624,114.0 170.57800315646455,114.06870614556829 170.8707201287616,114.34353065368487 170.92926352308132,114.61835504416376 170.75363333988935,115.71765142714139 170.9878069178667,116.61082835000707 171.16343710105866,118.25976709095994 171.51469746790826,119.97740710095968 171.69032765133306,121.28281043004245 171.74887104565278,122.86303195502842 171.5732408624608,124.3058395095868 172.10013141296804,125.7486438160413 172.39284838503227,127.12274013576098 172.45139177981764,127.87849185580853 172.27576159616,129.3212881195941 172.56847856845707,131.31371571519412 172.39284838503227,134.13058554049348 172.56847856845707,136.3978132365737 172.15867480705492,140.17650824057637 171.86595783475786,142.10019895783626 171.51469746790826,147.6651288793655 171.51469746790826,149.31398772558896 171.80741444043815,153.5735201119678 171.45615407358855,156.73380004236242 171.69032765133306,158.7261424253229 171.69032765133306,161.1306853297865 171.45615407358855,163.05431315890746 171.86595783475786,166.2145463457564 172.68556535732932,169.51216436416144 172.56847856845707,171.22966703021666 172.50993517390452,174.7333581992425 172.6270219630096,176.03865001321537 172.56847856845707,177.41263852478005 172.9782823298592,180.43540288379882 172.80265214620158,181.3971885542269 172.6270219630096,182.15287628327496 172.21721820160747,182.77116558037233 171.63178425678052,183.1146593769663 169.46567866159603,183.6642490682425 167.00685609364882,184.83212559804088 165.3676410485059,185.86260312213562 164.8407504982315,186.0 162.49901471938938,185.65650774975074 158.9864110511262,184.83212559804088 155.06400362146087,185.17561829008628 153.19061499857344,185.10691976634553 152.54663765942678,184.9008241511183 151.14159619202837,184.00774238625308 150.1463584860321,183.87034508114448 145.11162656149827,184.626029894338 142.8869775715284,184.69472846965073 140.13543803151697,185.31301531539066 138.9645701420959,185.79390467196936 138.3791361975018,185.86260312213562 136.85700794123113,185.65650774975074 135.393423079513,185.79390467196936 133.57857785071246,185.79390467196936 131.2368420716375,184.96952269691974 128.8365628987085,184.35123552003643 128.2511289541144,183.87034508114448 127.84132519271225,183.18335811397992 127.6071516147349,182.35897278174525 127.31443464243785,180.7788979318575 127.13880445901304,178.44312797568273 127.31443464243785,176.79434405901702 127.37297803675756,175.00815669674193 127.0802610644605,173.35936394479359 127.02171767014079,172.5349659785279 127.37297803675756,170.54266651591752 129.0121930821333,166.35194743523607 130.18306097132154,162.64210768142948 130.59286473272368,160.1001680465415 131.00266849412583,158.45133694750257 131.17829867755063,156.6650984705775 131.52955904440023,155.15366202482255 131.58810243871994,153.36741435772274 131.8222760166973,150.9628423298127 132.05644959467463,149.52009478304535 131.93936280556954,147.6651288793655 132.40770996175706,144.84831853822106 132.64188353926875,141.68798000446986 132.7004269338213,137.9092939114198 133.16877408954315,134.40540144586703 133.22731748386286,132.00075827760156 133.637121245265,127.67237783886958 133.57857785071246,125.95475845172768 133.28586087864824,122.45080062851775 133.40294766728766,121.76374782831408 133.637121245265,121.35151579481317 134.10546840098687,120.93928349605994 135.393423079513,120.11481810314581 142.53571720491163,118.67200111330021 143.58949830546044,118.3284727796563 145.3458001394756,117.4352982507553 147.16064536804333,115.99247522832593 147.68753591831774,115.71765142714139 150.1463584860321,115.6489454585244 153.19061499857344,115.85506334254751 154.12730931001715,115.6489454585244 154.5371130714193,115.44282750831917 155.70798096084036,115.6489454585244" stroke="#4dd2ff" stroke-linecap="round" stroke-linejoin="round" stroke-width="0.5"><title>2023-01-30 3.5km</title></polyline><polyline fill="none" points="24.400388854322955,266.0 23.929341515526175,265.6598062820267 23.784403872676194,265.4046608019853 23.856872694101185,265.1920394433255 25.451186764054,264.1289309402928 26.46575026307255,264.1289309402928 27.190438476623967,264.00135772835347 27.987595511600375,263.66116229625186 28.857221368001774,263.4910644708434 30.089191331062466,262.8531969753676 31.647270990535617,263.1508686009038 33.531460345955566,262.93824603411485 34.43732061283663,262.9807705565472 34.90836795163341,262.6405742490897 35.99540027207695,262.5130005584797 37.734651984646916,261.9176561268687 39.72754457220435,261.53493423451437 41.28562423144467,260.6844398183457 42.33642214117572,260.3017167361686 43.532157693523914,259.5787943510222 43.96697062184103,259.5787943510222 44.80036206752993,259.918993284693 45.52505028108135,259.83394357861835 48.17016226076521,258.26052072743187 49.365897813113406,257.96284543181537 52.91687005991116,256.6870916344051 53.71402709465474,256.2193142140168 56.21420143172145,256.04921319693676 57.337468162644655,255.6664856421412 57.59110903763212,255.4538590630982 57.59110903763212,255.19870701787295 58.02592196571641,254.85850403562654 58.0621563764289,254.00799530322547 56.75771759194322,251.11625197093235 56.90265523456037,250.09563164328574 56.54031112790108,248.8623785765667 56.61277994909324,247.71417399827624 55.779388503637165,246.05565040544025 55.56198203959502,245.03501705499366 55.01846587937325,243.71669508970808 55.380809986032546,242.39836874237517 55.1996379327029,240.18697277019965 55.453278807224706,239.33643257449148 56.14173261052929,238.9536888913426 58.17085960833356,238.40083625234547 60.81597158825025,238.48589055467164 62.04794155107811,237.7204011771828 63.17120828223415,237.2100741045724 64.94669440574944,236.69974637549603 66.39607083285227,236.52963698646636 68.02661931351759,235.63656149696908 69.18612045538612,235.29634173389059 70.59926247200929,234.36073588044383 71.83123243506998,234.10557026450988 73.24437445146032,233.34007243186352 75.52714232425205,233.42512781958794 76.03442407376133,233.5952385403216 76.2155961273238,233.8929321259202 74.33140677190386,230.1930102619517 73.86035943310708,229.55508921016008 73.46178091550246,228.5769416045805 71.83123243506998,226.36546855862252 69.43976133014075,221.89995654454106 68.89624516968615,219.85856287518982 67.12075904663652,214.6699733301066 66.39607083285227,210.9698721006862 66.17866436904296,208.63070983154466 65.888789083343,208.16287572169676 65.74385144072585,207.52491922778427 65.70761703001335,203.95234389291727 65.49021056573838,202.6764163291955 65.63514820858836,201.5706091192551 65.59891379787587,200.42226759844925 65.78008585120551,199.61417342332425 65.5264449766837,198.80607760124258 65.59891379787587,197.5301334760734 66.32360201142728,194.12759573347284 66.10619554738514,194.0 58.67814135784283,194.59544640459353 57.482405805494636,194.89316927143955 55.52574762888253,195.61620958897402 50.96021188306622,198.80607760124258 48.93108488502912,200.37973636714742 45.52505028108135,202.4637613359955 42.87993830116466,204.675367689837 41.720437159528956,205.99381945448113 41.35809305286966,206.5892478467722 40.95951453526504,207.7375715065573 39.18402841198258,210.07673904468538 38.133230502251536,212.756132177572 37.517245520604774,213.8619081924262 36.79255730705336,215.98839186163968 36.031634682789445,217.13668830125243 34.9808367730584,219.05050831113476 34.36485179141164,219.98615028735367 33.82133563118987,221.0919061403256 32.87924095359631,222.53788991112378 32.22702156123705,224.4516838529962 31.212458062218502,226.28041165680042 30.813879544846714,227.68384820516803 28.639814903959632,231.68148872529855 28.205001975642517,232.06423942715628 26.646922316635028,232.44698975954088 24.871436193119735,233.5952385403216 24.943905014544725,233.85040448451764 25.487421174766496,234.48831862673978 26.24834379903041,235.67908894686843 27.625251404941082,238.9536888913426 28.386174028972164,242.18573505003587 28.3499396184925,243.20637573319254 28.168767565162852,244.05690762936138 28.386174028972164,243.67416850180598 28.531111671822146,244.35459336207714 29.29203429631889,246.09817673813086 29.5094407601282,247.16133357130457 29.58190958155319,249.45774260474718 30.234128973912448,251.32888087525498 31.46609893720597,257.6651699128561 32.589365668129176,260.25919192653964 32.80677213217132,261.8751314902329" stroke="#4dd2ff" stroke-linecap="round" stroke-linejoin="round" stroke-width="0.5"><title>2023-01-06 5.5km</title></polyline></svg>