<?xml version="1.0" encoding="utf-8" ?>
<svg baseProfile="full" height="300mm" version="1.1" viewBox="0,0,200,300" width="200mm" xmlns="http://www.w3.org/2000/svg" xmlns:ev="http://www.w3.org/2001/xml-events" xmlns:xlink="http://www.w3.org/1999/xlink"><defs /><rect fill="#222222" height="300" width="200" x="0" y="0" /><text fill="#FFFFFF" style="font-size:12px; font-family:Arial; font-weight:bold;" x="10" y="20">Track</text><text fill="#FFFFFF" style="font-size:4px; font-family:Arial" x="10" y="280">ATHLETE</text><text fill="#FFFFFF" style="font-size:9px; font-family:Arial" x="10" y="290">Zzz</text><text fill="#FFFFFF" style="font-size:4px; font-family:Arial" x="120" y="280">STATISTICS</text><text fill="#FFFFFF" style="font-size:3px; font-family:Arial" x="120" y="285">Number: 1</text><text fill="#FFFFFF" style="font-size:3px; font-family:Arial" x="120" y="290">Weekly: 1.0</text><text fill="#FFFFFF" style="font-size:3px; font-family:Arial" x="141" y="285">Total: 5.5 km</text><text fill="#FFFFFF" style="font-size:3px; font-family:Arial" x="141" y="290">Avg: 5.5 km</text><text fill="#FFFFFF" style="font-size:3px; font-family:Arial" x="167" y="285">Min: 5.5 km</text><text fill="#FFFFFF" style="font-size:3px; font-family:Arial" x="167" y="290">Max: 5.5 km</text><polyline fill="none" points="42.40087492251769,231.0 41.341018409933895,230.23456413456006 41.01490871375427,229.66048680449603 41.17796356184408,229.18208874750417 44.76517021935433,226.79009461565875 47.04793809214607,226.79009461565875 48.67848657257855,226.50305488880258 50.472089901100844,225.73761516658124 52.428748078178614,225.35489505936857 55.200680495239794,223.91969319456257 58.70635972870514,224.58945435204078 62.945785778574646,224.11105357675115 64.983971378766,224.20673375221668 66.04382789134979,223.4412920604227 68.48965061223134,223.1542512566084 72.40296696592122,221.8147262854618 76.88697528745979,220.95360202767188 80.39265452092513,219.03998959128512 82.75694981776178,218.17886265640846 85.44735481077805,216.55228728981456 86.42568389931694,216.55228728981456 88.30081465188414,217.31773489055922 89.93136313231662,217.12637305189855 95.88286508666351,213.58617163670715 98.57327007967979,212.91640222159913 106.5629576346837,210.04595617740415 108.356560963206,208.9934569815523 113.98195322137326,208.6107296931441 116.50930336629972,207.74959269486135 117.07999533507973,207.27118289197097 117.07999533507973,206.69709079019958 118.05832442315295,205.9316340801306 118.13985184719786,204.01798943226459 115.20486458204687,197.51156693458324 115.53097427776083,195.2151711973711 114.71570003777742,192.4403517972678 114.87875488586724,189.85689149610698 113.00362413330004,186.12521341221873 112.5144595890306,183.82878837373573 111.29154822882265,180.86256395181408 112.10682246880606,177.89632967032958 111.69918534858152,172.92068873293465 112.26987731643021,171.0069732926204 113.81889837374911,170.14580000552814 118.38443411886692,168.90188156778459 124.33593607367948,169.09325374802575 127.107868490275,167.37090264866129 129.63521863520145,166.2226667352952 133.6300624134019,165.07442934485152 136.8911593738012,164.69168321957113 140.55989345582202,162.6822633681586 143.1687710247934,161.91676890128292 146.3483405620791,159.8116557309404 149.12027297914028,159.23753309517633 152.29984251596034,157.51516297168564 157.43607022985816,157.70653759408742 158.57745416648686,158.08928671572357 158.9850912867114,158.75909728335682 154.74566523730755,150.43427308939863 153.6858087242581,148.99895072286017 152.78900706022978,146.7981186102843 149.12027297914028,141.82230425684247 143.73946299264207,131.7749022252392 142.51655163196847,127.18176646914799 138.52170785469934,115.50743999273982 136.8911593738012,107.18221222655848 136.40199483046308,101.91909712093184 135.74977543763816,100.86647037381772 135.4236657419242,99.43106826249277 135.34213831741363,91.39277375908569 134.85297377314419,88.52193674072623 135.17908346978948,86.03387051826576 135.0975560452789,83.45010209648171 135.50519316550344,81.63189020252321 134.93450119765475,79.81367460283218 135.0975560452789,76.94280032115057 136.72810452617705,69.28709040035028 136.2389399819076,69.0 119.52581805549562,70.3397544103209 116.83541306294501,71.00963086076081 112.43293216498569,72.63647157518426 102.16047673719004,79.81367460283218 97.5949409911409,83.35440682608169 89.93136313231662,88.04346300597535 83.97986117796972,93.01957730209688 81.37098360899836,95.98609377257526 80.55570936901495,97.32580765523016 79.65890770452097,99.90953588974662 75.66406392678618,105.17266285058577 73.29976862994954,111.20129739952972 71.91380242165178,113.68929343292257 70.28325394075364,118.47388168866746 68.57117803674191,121.0575486778398 66.2068827394396,125.36364370002411 64.82091653067619,127.46883814653847 63.59800517046824,129.95678881573258 61.47829214576632,133.21025230002124 60.01079851295799,137.51628866925603 57.72803064016625,141.63092622777913 56.831228975672275,144.7886584616499 51.93958353390917,153.7833496319363 50.96125444537029,154.64453871105798 47.455575212370604,155.50572695897426 43.46073143463582,158.08928671572357 43.62378628272563,158.66341009020107 44.84669764339924,160.09871691011358 46.558773547876626,162.77795013046125 49.656815661117435,170.14580000552814 51.36889156559482,177.41790386254434 51.287364142015576,179.71434539969778 50.87972702179104,181.6280421660631 51.36889156559482,180.7668791290489 51.69500126177445,182.29783506464446 53.4070771667175,186.22089766076533 53.89624171052128,188.61300053540617 54.059296558611095,193.77992086065933 55.52679019141942,197.9899819692946 58.2987226084806,212.24663230392616 60.82607275340706,218.08318183472147 61.315237297676504,221.71904585300945" stroke="#4DD2FF" stroke-linecap="round" stroke-linejoin="round" stroke-width="0.5"><title>2023-01-06 5.5km</title></polyline></svg>