<?xml version="1.0" encoding="utf-8" ?>
<svg baseProfile="full" height="300mm" version="1.1" viewBox="0,0,200,300" width="200mm" xmlns="http://www.w3.org/2000/svg" xmlns:ev="http://www.w3.org/2001/xml-events" xmlns:xlink="http://www.w3.org/1999/xlink"><defs /><rect fill="#222222" height="300" width="200" x="0" y="0" /><text fill="#FFFFFF" style="font-size:12px; font-family:Arial; font-weight:bold;" x="10" y="20">Track</text><text fill="#FFFFFF" style="font-size:4px; font-family:Arial" x="10" y="280">ATHLETE</text><text fill="#FFFFFF" style="font-size:9px; font-family:Arial" x="10" y="290">Zzz</text><text fill="#FFFFFF" style="font-size:4px; font-family:Arial" x="120" y="280">STATISTICS</text><text fill="#FFFFFF" style="font-size:3px; font-family:Arial" x="120" y="285">Number: 2</text><text fill="#FFFFFF" style="font-size:3px; font-family:Arial" x="120" y="290">Weekly: 1.0</text><text fill="#FFFFFF" style="font-size:3px; font-family:Arial" x="141" y="285">Total: 9.1 km</text><text fill="#FFFFFF" style="font-size:3px; font-family:Arial" x="141" y="290">Avg: 4.5 km</text><text fill="#FFFFFF" style="font-size:3px; font-family:Arial" x="167" y="285">Min: 3.5 km</text><text fill="#FFFFFF" style="font-size:3px; font-family:Arial" x="167" y="290">Max: 5.5 km</text><polyline fill="none" points="109.4401223580353,40.740712602389976 112.16239020042121,39.916242525039706 112.95272602606565,40.01930132327834 114.70902786031365,40.431536406395026 115.85062405234203,40.3284776522778 118.04600134538487,39.19483062712243 120.94389937166125,38.576477140712086 123.05146157229319,37.236709889315534 124.10524267330766,36.824473436456174 130.25229909224436,36.0 130.867004734464,36.10305921838153 131.30608019279316,36.51529598061461 131.39389528427273,36.927532566245645 131.13045000983402,38.576477140712086 131.48171037621796,39.916242525039706 131.74515565112233,42.389650636410806 132.27204620139673,44.96611065143952 132.53549147676677,46.924215645121876 132.62330656824633,49.29454793257173 132.35986129334196,51.458759264380205 133.1501971189864,53.622965724091046 133.58927257731557,55.684110203699674 133.6770876692608,56.81773778377101 133.41364239389077,58.981932179420255 133.8527178526856,61.97057357279118 133.58927257731557,66.19587831071112 133.8527178526856,69.59671985486057 133.2380122100003,75.26476236089366 132.79893675167114,78.15029843675438 132.27204620139673,86.49769331904827 132.27204620139673,88.97098158841254 132.71112166019157,95.36028016795171 132.18423110991716,100.10070006357273 132.53549147676677,103.08921363804257 132.53549147676677,106.69602799473796 132.18423110991716,109.5814697383903 132.79893675167114,114.32181951863458 134.02834803564474,119.26824654627126 133.8527178526856,121.8445005453541 133.76490276074037,127.10003729892196 133.94053294416517,129.05797501985217 133.8527178526856,131.11895778722828 134.46742349443957,135.65310432569822 134.20397821906954,137.09578283136943 133.94053294416517,138.22931442491245 133.32582730194554,139.1567483705585 132.44767638482153,139.67198906542035 129.19851799216121,140.49637360236375 125.5102841402404,142.24818839714862 123.05146157229319,143.79390468320344 122.26112574711442,144.0 118.74852207861841,143.48476162465522 113.47961657634005,142.24818839714862 107.59600543184206,142.76342743512942 104.78592249751091,142.6603796495474 103.81995648890734,142.35123622667743 101.71239428780973,141.01161357940873 100.2195377284661,140.80551762180403 92.66743984166533,141.93904484150698 89.33046635705978,142.0420927045052 85.20315704680979,142.9695229731733 83.44685521256179,143.69085700798314 82.56870429590344,143.79390468320344 80.28551191138104,143.48476162465522 78.09013461926952,143.69085700798314 75.36786677548662,143.69085700798314 71.85526310745627,142.45428404543782 68.25484434794635,141.52685328002553 67.37669343082234,140.80551762180403 66.76198778860271,139.7750371710281 66.41072742175311,138.53845917264698 65.97165196342394,136.16834689781535 65.7082066880539,132.6646919635823 65.97165196342394,130.19151608855464 66.05946705490351,127.512235045142 65.62039159610868,125.03904591721948 65.53257650509477,123.80244896782096 66.05946705490351,120.81399977393448 68.51828962285072,114.52792115294142 70.27459145663306,108.96316152217332 70.8892970988527,105.15025206987048 71.50400274107233,102.67700542125385 71.7674480159767,99.99764770595357 72.2943385662511,97.73049303720472 72.38215365773067,95.05112153664231 72.73341402458027,91.44426349474816 73.08467439189553,89.28014217456803 72.90904420800507,86.49769331904827 73.61156494216993,82.2724778073607 73.96282530855387,77.5319700067048 74.0506404004991,71.86394086712971 74.75316113419831,66.60810216877144 74.84097622567788,63.00113741646055 75.45568186743185,56.50856675830437 75.36786677548662,53.93213767762063 74.92879131762311,48.67620094277663 75.10442150058225,47.64562174252933 75.45568186743185,47.02727369230706 76.15820260113105,46.40892524411902 78.09013461926952,45.17222715471871 88.80357580725104,43.008001670008525 90.38424745760858,42.492709169513546 93.01870020898059,41.15294737613294 95.74096805183217,38.988712842518 96.53130387701094,38.576477140712086 100.2195377284661,38.473418187873904 104.78592249751091,38.78259501385037 106.19096396444365,38.473418187873904 106.80566960666329,38.164241262478754 108.5619714409113,38.473418187873904" stroke="#4dd2ff" stroke-linecap="round" stroke-linejoin="round" stroke-width="0.5"><title>2023-01-30 3.5km</title></polyline><polyline fill="none" points="61.60058328136802,264.0 60.89401227305643,263.48970942304004 60.67660580901429,263.10699120297795 60.78530904115178,262.78805916494457 63.176780146081,261.19339641043916 64.69862539460883,261.19339641043916 65.78565771481954,261.00203659251565 66.98139326716773,260.4917434443487 68.28583205188625,260.2365967062069 70.1337869965937,259.2797954630223 72.4709064855706,259.7263029013411 75.29719051881693,259.4073690511286 76.65598091902211,259.4711558347917 77.3625519273337,258.96086137363454 78.99310040799901,258.76950083771953 81.60197797697037,257.87648419028847 84.59131685830653,257.30240135174245 86.92843634705059,256.026659727504 88.50463321153075,255.4525751042529 90.29823654028587,254.36819152650423 90.95045593264513,254.36819152650423 92.20054310117848,254.87848992703948 93.28757542138919,254.75091536791297 97.2552433910314,252.3907810911187 99.0488467195537,251.94426814769395 104.37530508963391,250.03063745162217 105.57104064198211,249.32897132099606 109.32130214734934,249.0738197953906 111.00620224396698,248.4997284632409 111.38666355633177,248.1807885946473 111.38666355633177,247.79806052678032 112.0388829484582,247.2877560534398 112.09323456441052,246.01199295482365 110.13657638779841,241.67437795636943 110.35398285160773,240.14344746491406 109.81046669161879,238.2935678648064 109.91916992352344,236.57126099738525 108.66908275522292,234.08347560814582 108.34297305904329,232.5525255824905 107.52769881905988,230.57504263450392 108.07121497904882,228.59755311353365 107.79945689905435,225.28045915527036 108.17991821095347,224.00464886176633 109.21259891544469,223.43053333699936 112.25628941250034,222.60125437850365 116.22395738237537,222.72883583197836 118.07191232661717,221.5806017657742 119.7568124232348,220.81511115684407 122.42004160862416,220.04961956321495 124.59410624904558,219.7944554797141 127.0399289703928,218.45484224543907 128.77918068296276,217.94451260083588 130.89889370766468,216.54110382060753 132.74684865237214,216.15835539676482 134.86656167707406,215.01010864775162 138.2907134864945,215.1376917293528 139.0516361107584,215.39285781042418 139.3233941909857,215.83939818886574 136.4971101579722,210.28951539291302 135.7905391494278,209.33263381524011 135.1926713732537,207.8654124068562 132.74684865237214,204.54820283787558 129.15964199509472,197.84993481682613 128.34436775464565,194.78784431278473 125.68113856972195,187.00495999510167 124.59410624904558,181.45480815100018 124.26799655333161,177.9460647472879 123.8331836250145,177.24431358254515 123.61577716097236,176.28737884166185 123.5614255447872,170.92851583939046 123.23531584860757,169.01462449377868 123.45272231288254,167.35591367882444 123.39837069669738,165.63340139761567 123.67012877669185,164.42126013501547 123.28966746479273,163.20911640184931 123.39837069669738,161.29520021408098 124.48540301714092,156.19139360019471 124.1592933209613,156.0 113.01721203676425,156.8931696068612 111.22360870824195,157.33975390717387 108.28862144309096,158.42431438341737 101.44031782448292,163.20911640184931 98.39662732719444,165.56960455072112 93.28757542138919,168.69564200396417 89.31990745174699,172.01305153471185 87.58065573917702,173.99072918173624 87.03713957895525,174.88387177011464 86.43927180301398,176.60635725979228 83.77604261785746,180.11510856699897 82.19984575314447,184.13419826637255 81.27586828079075,185.79286228859564 80.1888359603472,188.98258779244497 79.04745202418417,190.7050324518932 77.47125515923835,193.57576246670214 76.54727768688463,194.97922543098684 75.73200344690122,196.6378592104884 74.31886143027805,198.80683486664202 73.34053234173916,201.6775257794652 71.81868709321134,204.42061748518609 71.22081931703724,206.5257723077084 67.95972235570662,212.52223308791872 67.30750296334736,213.09635914070532 64.97038347483613,213.67048463929677 62.3071542896796,215.39285781042418 62.41585752181709,215.7756067267619 63.23113176226616,216.73247794009512 64.3725156984292,218.5186334202881 66.43787710717879,223.43053333699936 67.57926104334183,228.27860257501015 67.52490942762233,229.8095635997597 67.25315134762786,231.08536144404206 67.57926104334183,230.51125275267987 67.7966675076168,231.5318900430575 68.9380514442455,234.14726510713808 69.2641611401923,235.74200035689864 69.37286437232979,239.18661390710622 70.35119346063584,241.99332131288247 72.19914840557612,251.4977548692841 73.88404850219376,255.3887878897949 74.21015819837339,257.81269723532023" stroke="#4dd2ff" stroke-linecap="round" stroke-linejoin="round" stroke-width="0.5"><title>2023-01-06 5.5km</title></polyline></svg>